<svg width="1363" height="163" viewBox="0 0 1363 163" fill="none" xmlns="http://www.w3.org/2000/svg">
<path d="M0 15C0 6.71573 6.71573 0 15 0H37V163H15C6.71573 163 0 156.284 0 148V15Z" fill="#424242"/>
<rect width="1097" height="163" transform="translate(37)" fill="#F0F0F0"/>
<path d="M100.148 61.2344C99.1641 61.2344 98.2812 61.0781 97.5 60.7656C96.7188 60.4453 96.0547 60.0039 95.5078 59.4414C94.9688 58.8789 94.5547 58.2266 94.2656 57.4844C93.9766 56.7344 93.832 55.9375 93.832 55.0938V54.625C93.832 53.6641 93.9688 52.7852 94.2422 51.9883C94.5156 51.1914 94.9062 50.5 95.4141 49.9141C95.9297 49.3281 96.5547 48.8789 97.2891 48.5664C98.0234 48.2461 98.8516 48.0859 99.7734 48.0859C100.672 48.0859 101.469 48.2344 102.164 48.5312C102.859 48.8281 103.441 49.25 103.91 49.7969C104.387 50.3438 104.746 51 104.988 51.7656C105.23 52.5234 105.352 53.3672 105.352 54.2969V55.7031H95.2734V53.4531H102.035V53.1953C102.035 52.7266 101.949 52.3086 101.777 51.9414C101.613 51.5664 101.363 51.2695 101.027 51.0508C100.691 50.832 100.262 50.7227 99.7383 50.7227C99.293 50.7227 98.9102 50.8203 98.5898 51.0156C98.2695 51.2109 98.0078 51.4844 97.8047 51.8359C97.6094 52.1875 97.4609 52.6016 97.3594 53.0781C97.2656 53.5469 97.2188 54.0625 97.2188 54.625V55.0938C97.2188 55.6016 97.2891 56.0703 97.4297 56.5C97.5781 56.9297 97.7852 57.3008 98.0508 57.6133C98.3242 57.9258 98.6523 58.168 99.0352 58.3398C99.4258 58.5117 99.8672 58.5977 100.359 58.5977C100.969 58.5977 101.535 58.4805 102.059 58.2461C102.59 58.0039 103.047 57.6406 103.43 57.1562L105.07 58.9375C104.805 59.3203 104.441 59.6875 103.98 60.0391C103.527 60.3906 102.98 60.6797 102.34 60.9062C101.699 61.125 100.969 61.2344 100.148 61.2344ZM113.93 52.3516V55H107.309V52.3516H113.93ZM121.98 58.5977C122.395 58.5977 122.762 58.5195 123.082 58.3633C123.402 58.1992 123.652 57.9727 123.832 57.6836C124.02 57.3867 124.117 57.0391 124.125 56.6406H127.301C127.293 57.5312 127.055 58.3242 126.586 59.0195C126.117 59.707 125.488 60.25 124.699 60.6484C123.91 61.0391 123.027 61.2344 122.051 61.2344C121.066 61.2344 120.207 61.0703 119.473 60.7422C118.746 60.4141 118.141 59.9609 117.656 59.3828C117.172 58.7969 116.809 58.1172 116.566 57.3438C116.324 56.5625 116.203 55.7266 116.203 54.8359V54.4961C116.203 53.5977 116.324 52.7617 116.566 51.9883C116.809 51.207 117.172 50.5273 117.656 49.9492C118.141 49.3633 118.746 48.9062 119.473 48.5781C120.199 48.25 121.051 48.0859 122.027 48.0859C123.066 48.0859 123.977 48.2852 124.758 48.6836C125.547 49.082 126.164 49.6523 126.609 50.3945C127.062 51.1289 127.293 52 127.301 53.0078H124.125C124.117 52.5859 124.027 52.2031 123.855 51.8594C123.691 51.5156 123.449 51.2422 123.129 51.0391C122.816 50.8281 122.43 50.7227 121.969 50.7227C121.477 50.7227 121.074 50.8281 120.762 51.0391C120.449 51.2422 120.207 51.5234 120.035 51.8828C119.863 52.2344 119.742 52.6367 119.672 53.0898C119.609 53.5352 119.578 54.0039 119.578 54.4961V54.8359C119.578 55.3281 119.609 55.8008 119.672 56.2539C119.734 56.707 119.852 57.1094 120.023 57.4609C120.203 57.8125 120.449 58.0898 120.762 58.293C121.074 58.4961 121.48 58.5977 121.98 58.5977ZM128.719 54.7891V54.543C128.719 53.6133 128.852 52.7578 129.117 51.9766C129.383 51.1875 129.77 50.5039 130.277 49.9258C130.785 49.3477 131.41 48.8984 132.152 48.5781C132.895 48.25 133.746 48.0859 134.707 48.0859C135.668 48.0859 136.523 48.25 137.273 48.5781C138.023 48.8984 138.652 49.3477 139.16 49.9258C139.676 50.5039 140.066 51.1875 140.332 51.9766C140.598 52.7578 140.73 53.6133 140.73 54.543V54.7891C140.73 55.7109 140.598 56.5664 140.332 57.3555C140.066 58.1367 139.676 58.8203 139.16 59.4062C138.652 59.9844 138.027 60.4336 137.285 60.7539C136.543 61.0742 135.691 61.2344 134.73 61.2344C133.77 61.2344 132.914 61.0742 132.164 60.7539C131.422 60.4336 130.793 59.9844 130.277 59.4062C129.77 58.8203 129.383 58.1367 129.117 57.3555C128.852 56.5664 128.719 55.7109 128.719 54.7891ZM132.094 54.543V54.7891C132.094 55.3203 132.141 55.8164 132.234 56.2773C132.328 56.7383 132.477 57.1445 132.68 57.4961C132.891 57.8398 133.164 58.1094 133.5 58.3047C133.836 58.5 134.246 58.5977 134.73 58.5977C135.199 58.5977 135.602 58.5 135.938 58.3047C136.273 58.1094 136.543 57.8398 136.746 57.4961C136.949 57.1445 137.098 56.7383 137.191 56.2773C137.293 55.8164 137.344 55.3203 137.344 54.7891V54.543C137.344 54.0273 137.293 53.543 137.191 53.0898C137.098 52.6289 136.945 52.2227 136.734 51.8711C136.531 51.5117 136.262 51.2305 135.926 51.0273C135.59 50.8242 135.184 50.7227 134.707 50.7227C134.23 50.7227 133.824 50.8242 133.488 51.0273C133.16 51.2305 132.891 51.5117 132.68 51.8711C132.477 52.2227 132.328 52.6289 132.234 53.0898C132.141 53.543 132.094 54.0273 132.094 54.543ZM146.18 50.9453V61H142.793V48.3203H145.969L146.18 50.9453ZM145.711 54.2148H144.773C144.773 53.332 144.879 52.5195 145.09 51.7773C145.309 51.0273 145.625 50.3789 146.039 49.832C146.461 49.2773 146.98 48.8477 147.598 48.543C148.215 48.2383 148.93 48.0859 149.742 48.0859C150.305 48.0859 150.82 48.1719 151.289 48.3438C151.758 48.5078 152.16 48.7695 152.496 49.1289C152.84 49.4805 153.105 49.9414 153.293 50.5117C153.48 51.0742 153.574 51.75 153.574 52.5391V61H150.199V52.9141C150.199 52.3359 150.121 51.8906 149.965 51.5781C149.809 51.2656 149.586 51.0469 149.297 50.9219C149.016 50.7969 148.676 50.7344 148.277 50.7344C147.84 50.7344 147.457 50.8242 147.129 51.0039C146.809 51.1836 146.543 51.4336 146.332 51.7539C146.121 52.0664 145.965 52.4336 145.863 52.8555C145.762 53.2773 145.711 53.7305 145.711 54.2148ZM153.258 53.8281L152.051 53.9805C152.051 53.1523 152.152 52.3828 152.355 51.6719C152.566 50.9609 152.875 50.3359 153.281 49.7969C153.695 49.2578 154.207 48.8398 154.816 48.543C155.426 48.2383 156.129 48.0859 156.926 48.0859C157.535 48.0859 158.09 48.1758 158.59 48.3555C159.09 48.5273 159.516 48.8047 159.867 49.1875C160.227 49.5625 160.5 50.0547 160.688 50.6641C160.883 51.2734 160.98 52.0195 160.98 52.9023V61H157.594V52.9023C157.594 52.3164 157.516 51.8711 157.359 51.5664C157.211 51.2539 156.992 51.0391 156.703 50.9219C156.422 50.7969 156.086 50.7344 155.695 50.7344C155.289 50.7344 154.934 50.8164 154.629 50.9805C154.324 51.1367 154.07 51.3555 153.867 51.6367C153.664 51.918 153.512 52.2461 153.41 52.6211C153.309 52.9883 153.258 53.3906 153.258 53.8281ZM166.969 50.9453V61H163.582V48.3203H166.758L166.969 50.9453ZM166.5 54.2148H165.562C165.562 53.332 165.668 52.5195 165.879 51.7773C166.098 51.0273 166.414 50.3789 166.828 49.832C167.25 49.2773 167.77 48.8477 168.387 48.543C169.004 48.2383 169.719 48.0859 170.531 48.0859C171.094 48.0859 171.609 48.1719 172.078 48.3438C172.547 48.5078 172.949 48.7695 173.285 49.1289C173.629 49.4805 173.895 49.9414 174.082 50.5117C174.27 51.0742 174.363 51.75 174.363 52.5391V61H170.988V52.9141C170.988 52.3359 170.91 51.8906 170.754 51.5781C170.598 51.2656 170.375 51.0469 170.086 50.9219C169.805 50.7969 169.465 50.7344 169.066 50.7344C168.629 50.7344 168.246 50.8242 167.918 51.0039C167.598 51.1836 167.332 51.4336 167.121 51.7539C166.91 52.0664 166.754 52.4336 166.652 52.8555C166.551 53.2773 166.5 53.7305 166.5 54.2148ZM174.047 53.8281L172.84 53.9805C172.84 53.1523 172.941 52.3828 173.145 51.6719C173.355 50.9609 173.664 50.3359 174.07 49.7969C174.484 49.2578 174.996 48.8398 175.605 48.543C176.215 48.2383 176.918 48.0859 177.715 48.0859C178.324 48.0859 178.879 48.1758 179.379 48.3555C179.879 48.5273 180.305 48.8047 180.656 49.1875C181.016 49.5625 181.289 50.0547 181.477 50.6641C181.672 51.2734 181.77 52.0195 181.77 52.9023V61H178.383V52.9023C178.383 52.3164 178.305 51.8711 178.148 51.5664C178 51.2539 177.781 51.0391 177.492 50.9219C177.211 50.7969 176.875 50.7344 176.484 50.7344C176.078 50.7344 175.723 50.8164 175.418 50.9805C175.113 51.1367 174.859 51.3555 174.656 51.6367C174.453 51.918 174.301 52.2461 174.199 52.6211C174.098 52.9883 174.047 53.3906 174.047 53.8281ZM190.219 61.2344C189.234 61.2344 188.352 61.0781 187.57 60.7656C186.789 60.4453 186.125 60.0039 185.578 59.4414C185.039 58.8789 184.625 58.2266 184.336 57.4844C184.047 56.7344 183.902 55.9375 183.902 55.0938V54.625C183.902 53.6641 184.039 52.7852 184.312 51.9883C184.586 51.1914 184.977 50.5 185.484 49.9141C186 49.3281 186.625 48.8789 187.359 48.5664C188.094 48.2461 188.922 48.0859 189.844 48.0859C190.742 48.0859 191.539 48.2344 192.234 48.5312C192.93 48.8281 193.512 49.25 193.98 49.7969C194.457 50.3438 194.816 51 195.059 51.7656C195.301 52.5234 195.422 53.3672 195.422 54.2969V55.7031H185.344V53.4531H192.105V53.1953C192.105 52.7266 192.02 52.3086 191.848 51.9414C191.684 51.5664 191.434 51.2695 191.098 51.0508C190.762 50.832 190.332 50.7227 189.809 50.7227C189.363 50.7227 188.98 50.8203 188.66 51.0156C188.34 51.2109 188.078 51.4844 187.875 51.8359C187.68 52.1875 187.531 52.6016 187.43 53.0781C187.336 53.5469 187.289 54.0625 187.289 54.625V55.0938C187.289 55.6016 187.359 56.0703 187.5 56.5C187.648 56.9297 187.855 57.3008 188.121 57.6133C188.395 57.9258 188.723 58.168 189.105 58.3398C189.496 58.5117 189.938 58.5977 190.43 58.5977C191.039 58.5977 191.605 58.4805 192.129 58.2461C192.66 58.0039 193.117 57.6406 193.5 57.1562L195.141 58.9375C194.875 59.3203 194.512 59.6875 194.051 60.0391C193.598 60.3906 193.051 60.6797 192.41 60.9062C191.77 61.125 191.039 61.2344 190.219 61.2344ZM200.719 51.0859V61H197.344V48.3203H200.52L200.719 51.0859ZM204.539 48.2383L204.48 51.3672C204.316 51.3438 204.117 51.3242 203.883 51.3086C203.656 51.2852 203.449 51.2734 203.262 51.2734C202.785 51.2734 202.371 51.3359 202.02 51.4609C201.676 51.5781 201.387 51.7539 201.152 51.9883C200.926 52.2227 200.754 52.5078 200.637 52.8438C200.527 53.1797 200.465 53.5625 200.449 53.9922L199.77 53.7812C199.77 52.9609 199.852 52.207 200.016 51.5195C200.18 50.8242 200.418 50.2188 200.73 49.7031C201.051 49.1875 201.441 48.7891 201.902 48.5078C202.363 48.2266 202.891 48.0859 203.484 48.0859C203.672 48.0859 203.863 48.1016 204.059 48.1328C204.254 48.1562 204.414 48.1914 204.539 48.2383ZM211.137 58.5977C211.551 58.5977 211.918 58.5195 212.238 58.3633C212.559 58.1992 212.809 57.9727 212.988 57.6836C213.176 57.3867 213.273 57.0391 213.281 56.6406H216.457C216.449 57.5312 216.211 58.3242 215.742 59.0195C215.273 59.707 214.645 60.25 213.855 60.6484C213.066 61.0391 212.184 61.2344 211.207 61.2344C210.223 61.2344 209.363 61.0703 208.629 60.7422C207.902 60.4141 207.297 59.9609 206.812 59.3828C206.328 58.7969 205.965 58.1172 205.723 57.3438C205.48 56.5625 205.359 55.7266 205.359 54.8359V54.4961C205.359 53.5977 205.48 52.7617 205.723 51.9883C205.965 51.207 206.328 50.5273 206.812 49.9492C207.297 49.3633 207.902 48.9062 208.629 48.5781C209.355 48.25 210.207 48.0859 211.184 48.0859C212.223 48.0859 213.133 48.2852 213.914 48.6836C214.703 49.082 215.32 49.6523 215.766 50.3945C216.219 51.1289 216.449 52 216.457 53.0078H213.281C213.273 52.5859 213.184 52.2031 213.012 51.8594C212.848 51.5156 212.605 51.2422 212.285 51.0391C211.973 50.8281 211.586 50.7227 211.125 50.7227C210.633 50.7227 210.23 50.8281 209.918 51.0391C209.605 51.2422 209.363 51.5234 209.191 51.8828C209.02 52.2344 208.898 52.6367 208.828 53.0898C208.766 53.5352 208.734 54.0039 208.734 54.4961V54.8359C208.734 55.3281 208.766 55.8008 208.828 56.2539C208.891 56.707 209.008 57.1094 209.18 57.4609C209.359 57.8125 209.605 58.0898 209.918 58.293C210.23 58.4961 210.637 58.5977 211.137 58.5977ZM224.25 61.2344C223.266 61.2344 222.383 61.0781 221.602 60.7656C220.82 60.4453 220.156 60.0039 219.609 59.4414C219.07 58.8789 218.656 58.2266 218.367 57.4844C218.078 56.7344 217.934 55.9375 217.934 55.0938V54.625C217.934 53.6641 218.07 52.7852 218.344 51.9883C218.617 51.1914 219.008 50.5 219.516 49.9141C220.031 49.3281 220.656 48.8789 221.391 48.5664C222.125 48.2461 222.953 48.0859 223.875 48.0859C224.773 48.0859 225.57 48.2344 226.266 48.5312C226.961 48.8281 227.543 49.25 228.012 49.7969C228.488 50.3438 228.848 51 229.09 51.7656C229.332 52.5234 229.453 53.3672 229.453 54.2969V55.7031H219.375V53.4531H226.137V53.1953C226.137 52.7266 226.051 52.3086 225.879 51.9414C225.715 51.5664 225.465 51.2695 225.129 51.0508C224.793 50.832 224.363 50.7227 223.84 50.7227C223.395 50.7227 223.012 50.8203 222.691 51.0156C222.371 51.2109 222.109 51.4844 221.906 51.8359C221.711 52.1875 221.562 52.6016 221.461 53.0781C221.367 53.5469 221.32 54.0625 221.32 54.625V55.0938C221.32 55.6016 221.391 56.0703 221.531 56.5C221.68 56.9297 221.887 57.3008 222.152 57.6133C222.426 57.9258 222.754 58.168 223.137 58.3398C223.527 58.5117 223.969 58.5977 224.461 58.5977C225.07 58.5977 225.637 58.4805 226.16 58.2461C226.691 58.0039 227.148 57.6406 227.531 57.1562L229.172 58.9375C228.906 59.3203 228.543 59.6875 228.082 60.0391C227.629 60.3906 227.082 60.6797 226.441 60.9062C225.801 61.125 225.07 61.2344 224.25 61.2344ZM237.352 43H240.727V58.0938L240.387 61H237.352V43ZM248.754 54.5312V54.7773C248.754 55.7227 248.652 56.5898 248.449 57.3789C248.254 58.168 247.949 58.8516 247.535 59.4297C247.121 60 246.605 60.4453 245.988 60.7656C245.379 61.0781 244.66 61.2344 243.832 61.2344C243.059 61.2344 242.387 61.0781 241.816 60.7656C241.254 60.4531 240.781 60.0117 240.398 59.4414C240.016 58.8711 239.707 58.2031 239.473 57.4375C239.238 56.6719 239.062 55.8359 238.945 54.9297V54.3906C239.062 53.4844 239.238 52.6484 239.473 51.8828C239.707 51.1172 240.016 50.4492 240.398 49.8789C240.781 49.3086 241.254 48.8672 241.816 48.5547C242.379 48.2422 243.043 48.0859 243.809 48.0859C244.645 48.0859 245.371 48.2461 245.988 48.5664C246.613 48.8789 247.129 49.3242 247.535 49.9023C247.949 50.4727 248.254 51.1523 248.449 51.9414C248.652 52.7227 248.754 53.5859 248.754 54.5312ZM245.379 54.7773V54.5312C245.379 54.0156 245.34 53.5312 245.262 53.0781C245.191 52.6172 245.066 52.2148 244.887 51.8711C244.707 51.5195 244.461 51.2422 244.148 51.0391C243.844 50.8359 243.449 50.7344 242.965 50.7344C242.504 50.7344 242.113 50.8125 241.793 50.9688C241.473 51.125 241.207 51.3438 240.996 51.625C240.793 51.9062 240.641 52.2422 240.539 52.6328C240.438 53.0156 240.375 53.4375 240.352 53.8984V55.4336C240.375 56.0508 240.477 56.5977 240.656 57.0742C240.844 57.543 241.125 57.9141 241.5 58.1875C241.883 58.4531 242.379 58.5859 242.988 58.5859C243.465 58.5859 243.859 58.4922 244.172 58.3047C244.484 58.1172 244.727 57.8516 244.898 57.5078C245.078 57.1641 245.203 56.7617 245.273 56.3008C245.344 55.832 245.379 55.3242 245.379 54.7773ZM257.695 58.1406V52.4922C257.695 52.0859 257.629 51.7383 257.496 51.4492C257.363 51.1523 257.156 50.9219 256.875 50.7578C256.602 50.5938 256.246 50.5117 255.809 50.5117C255.434 50.5117 255.109 50.5781 254.836 50.7109C254.562 50.8359 254.352 51.0195 254.203 51.2617C254.055 51.4961 253.98 51.7734 253.98 52.0938H250.605C250.605 51.5547 250.73 51.043 250.98 50.5586C251.23 50.0742 251.594 49.6484 252.07 49.2812C252.547 48.9062 253.113 48.6133 253.77 48.4023C254.434 48.1914 255.176 48.0859 255.996 48.0859C256.98 48.0859 257.855 48.25 258.621 48.5781C259.387 48.9062 259.988 49.3984 260.426 50.0547C260.871 50.7109 261.094 51.5312 261.094 52.5156V57.9414C261.094 58.6367 261.137 59.207 261.223 59.6523C261.309 60.0898 261.434 60.4727 261.598 60.8008V61H258.188C258.023 60.6562 257.898 60.2266 257.812 59.7109C257.734 59.1875 257.695 58.6641 257.695 58.1406ZM258.141 53.2773L258.164 55.1875H256.277C255.832 55.1875 255.445 55.2383 255.117 55.3398C254.789 55.4414 254.52 55.5859 254.309 55.7734C254.098 55.9531 253.941 56.1641 253.84 56.4062C253.746 56.6484 253.699 56.9141 253.699 57.2031C253.699 57.4922 253.766 57.7539 253.898 57.9883C254.031 58.2148 254.223 58.3945 254.473 58.5273C254.723 58.6523 255.016 58.7148 255.352 58.7148C255.859 58.7148 256.301 58.6133 256.676 58.4102C257.051 58.207 257.34 57.957 257.543 57.6602C257.754 57.3633 257.863 57.082 257.871 56.8164L258.762 58.2461C258.637 58.5664 258.465 58.8984 258.246 59.2422C258.035 59.5859 257.766 59.9102 257.438 60.2148C257.109 60.5117 256.715 60.7578 256.254 60.9531C255.793 61.1406 255.246 61.2344 254.613 61.2344C253.809 61.2344 253.078 61.0742 252.422 60.7539C251.773 60.4258 251.258 59.9766 250.875 59.4062C250.5 58.8281 250.312 58.1719 250.312 57.4375C250.312 56.7734 250.438 56.1836 250.688 55.668C250.938 55.1523 251.305 54.7188 251.789 54.3672C252.281 54.0078 252.895 53.7383 253.629 53.5586C254.363 53.3711 255.215 53.2773 256.184 53.2773H258.141ZM268.934 58.5977C269.348 58.5977 269.715 58.5195 270.035 58.3633C270.355 58.1992 270.605 57.9727 270.785 57.6836C270.973 57.3867 271.07 57.0391 271.078 56.6406H274.254C274.246 57.5312 274.008 58.3242 273.539 59.0195C273.07 59.707 272.441 60.25 271.652 60.6484C270.863 61.0391 269.98 61.2344 269.004 61.2344C268.02 61.2344 267.16 61.0703 266.426 60.7422C265.699 60.4141 265.094 59.9609 264.609 59.3828C264.125 58.7969 263.762 58.1172 263.52 57.3438C263.277 56.5625 263.156 55.7266 263.156 54.8359V54.4961C263.156 53.5977 263.277 52.7617 263.52 51.9883C263.762 51.207 264.125 50.5273 264.609 49.9492C265.094 49.3633 265.699 48.9062 266.426 48.5781C267.152 48.25 268.004 48.0859 268.98 48.0859C270.02 48.0859 270.93 48.2852 271.711 48.6836C272.5 49.082 273.117 49.6523 273.562 50.3945C274.016 51.1289 274.246 52 274.254 53.0078H271.078C271.07 52.5859 270.98 52.2031 270.809 51.8594C270.645 51.5156 270.402 51.2422 270.082 51.0391C269.77 50.8281 269.383 50.7227 268.922 50.7227C268.43 50.7227 268.027 50.8281 267.715 51.0391C267.402 51.2422 267.16 51.5234 266.988 51.8828C266.816 52.2344 266.695 52.6367 266.625 53.0898C266.562 53.5352 266.531 54.0039 266.531 54.4961V54.8359C266.531 55.3281 266.562 55.8008 266.625 56.2539C266.688 56.707 266.805 57.1094 266.977 57.4609C267.156 57.8125 267.402 58.0898 267.715 58.293C268.027 58.4961 268.434 58.5977 268.934 58.5977ZM279.586 42.9883V61H276.211V42.9883H279.586ZM287.578 48.3203L282.07 54.6016L279.117 57.5898L277.887 55.1523L280.23 52.1758L283.523 48.3203H287.578ZM284.074 61L280.324 55.1406L282.656 53.1016L287.965 61H284.074ZM294.633 61.2344C293.648 61.2344 292.766 61.0781 291.984 60.7656C291.203 60.4453 290.539 60.0039 289.992 59.4414C289.453 58.8789 289.039 58.2266 288.75 57.4844C288.461 56.7344 288.316 55.9375 288.316 55.0938V54.625C288.316 53.6641 288.453 52.7852 288.727 51.9883C289 51.1914 289.391 50.5 289.898 49.9141C290.414 49.3281 291.039 48.8789 291.773 48.5664C292.508 48.2461 293.336 48.0859 294.258 48.0859C295.156 48.0859 295.953 48.2344 296.648 48.5312C297.344 48.8281 297.926 49.25 298.395 49.7969C298.871 50.3438 299.23 51 299.473 51.7656C299.715 52.5234 299.836 53.3672 299.836 54.2969V55.7031H289.758V53.4531H296.52V53.1953C296.52 52.7266 296.434 52.3086 296.262 51.9414C296.098 51.5664 295.848 51.2695 295.512 51.0508C295.176 50.832 294.746 50.7227 294.223 50.7227C293.777 50.7227 293.395 50.8203 293.074 51.0156C292.754 51.2109 292.492 51.4844 292.289 51.8359C292.094 52.1875 291.945 52.6016 291.844 53.0781C291.75 53.5469 291.703 54.0625 291.703 54.625V55.0938C291.703 55.6016 291.773 56.0703 291.914 56.5C292.062 56.9297 292.27 57.3008 292.535 57.6133C292.809 57.9258 293.137 58.168 293.52 58.3398C293.91 58.5117 294.352 58.5977 294.844 58.5977C295.453 58.5977 296.02 58.4805 296.543 58.2461C297.074 58.0039 297.531 57.6406 297.914 57.1562L299.555 58.9375C299.289 59.3203 298.926 59.6875 298.465 60.0391C298.012 60.3906 297.465 60.6797 296.824 60.9062C296.184 61.125 295.453 61.2344 294.633 61.2344ZM305.062 51.0273V61H301.688V48.3203H304.852L305.062 51.0273ZM304.57 54.2148H303.656C303.656 53.2773 303.777 52.4336 304.02 51.6836C304.262 50.9258 304.602 50.2812 305.039 49.75C305.477 49.2109 305.996 48.8008 306.598 48.5195C307.207 48.2305 307.887 48.0859 308.637 48.0859C309.23 48.0859 309.773 48.1719 310.266 48.3438C310.758 48.5156 311.18 48.7891 311.531 49.1641C311.891 49.5391 312.164 50.0352 312.352 50.6523C312.547 51.2695 312.645 52.0234 312.645 52.9141V61H309.246V52.9023C309.246 52.3398 309.168 51.9023 309.012 51.5898C308.855 51.2773 308.625 51.0586 308.32 50.9336C308.023 50.8008 307.656 50.7344 307.219 50.7344C306.766 50.7344 306.371 50.8242 306.035 51.0039C305.707 51.1836 305.434 51.4336 305.215 51.7539C305.004 52.0664 304.844 52.4336 304.734 52.8555C304.625 53.2773 304.57 53.7305 304.57 54.2148ZM322.699 58.2344V43H326.098V61H323.039L322.699 58.2344ZM314.684 54.8125V54.5664C314.684 53.5977 314.793 52.7188 315.012 51.9297C315.23 51.1328 315.551 50.4492 315.973 49.8789C316.395 49.3086 316.914 48.8672 317.531 48.5547C318.148 48.2422 318.852 48.0859 319.641 48.0859C320.383 48.0859 321.031 48.2422 321.586 48.5547C322.148 48.8672 322.625 49.3125 323.016 49.8906C323.414 50.4609 323.734 51.1367 323.977 51.918C324.219 52.6914 324.395 53.5391 324.504 54.4609V55C324.395 55.8828 324.219 56.7031 323.977 57.4609C323.734 58.2188 323.414 58.8828 323.016 59.4531C322.625 60.0156 322.148 60.4531 321.586 60.7656C321.023 61.0781 320.367 61.2344 319.617 61.2344C318.828 61.2344 318.125 61.0742 317.508 60.7539C316.898 60.4336 316.383 59.9844 315.961 59.4062C315.547 58.8281 315.23 58.1484 315.012 57.3672C314.793 56.5859 314.684 55.7344 314.684 54.8125ZM318.059 54.5664V54.8125C318.059 55.3359 318.098 55.8242 318.176 56.2773C318.262 56.7305 318.398 57.1328 318.586 57.4844C318.781 57.8281 319.031 58.0977 319.336 58.293C319.648 58.4805 320.027 58.5742 320.473 58.5742C321.051 58.5742 321.527 58.4453 321.902 58.1875C322.277 57.9219 322.562 57.5586 322.758 57.0977C322.961 56.6367 323.078 56.1055 323.109 55.5039V53.9688C323.086 53.4766 323.016 53.0352 322.898 52.6445C322.789 52.2461 322.625 51.9062 322.406 51.625C322.195 51.3438 321.93 51.125 321.609 50.9688C321.297 50.8125 320.926 50.7344 320.496 50.7344C320.059 50.7344 319.684 50.8359 319.371 51.0391C319.059 51.2344 318.805 51.5039 318.609 51.8477C318.422 52.1914 318.281 52.5977 318.188 53.0664C318.102 53.5273 318.059 54.0273 318.059 54.5664ZM334.863 54.3203V54.0625C334.863 52.4141 335.035 50.918 335.379 49.5742C335.73 48.2305 336.191 47.0508 336.762 46.0352C337.34 45.0117 337.969 44.1641 338.648 43.4922C339.328 42.8203 340.004 42.3359 340.676 42.0391L341.32 43.8203C340.875 44.1484 340.438 44.6016 340.008 45.1797C339.578 45.75 339.188 46.4531 338.836 47.2891C338.492 48.1172 338.215 49.0938 338.004 50.2188C337.793 51.3359 337.688 52.6094 337.688 54.0391V54.3438C337.688 55.7734 337.793 57.0508 338.004 58.1758C338.215 59.293 338.492 60.2695 338.836 61.1055C339.188 61.9492 339.578 62.6602 340.008 63.2383C340.438 63.8164 340.875 64.2734 341.32 64.6094L340.676 66.3438C340.004 66.0469 339.328 65.5625 338.648 64.8906C337.969 64.2266 337.34 63.3828 336.762 62.3594C336.191 61.3438 335.73 60.1641 335.379 58.8203C335.035 57.4688 334.863 55.9688 334.863 54.3203ZM346.664 43V61H343.277V43H346.664ZM356.297 58.1406V52.4922C356.297 52.0859 356.23 51.7383 356.098 51.4492C355.965 51.1523 355.758 50.9219 355.477 50.7578C355.203 50.5938 354.848 50.5117 354.41 50.5117C354.035 50.5117 353.711 50.5781 353.438 50.7109C353.164 50.8359 352.953 51.0195 352.805 51.2617C352.656 51.4961 352.582 51.7734 352.582 52.0938H349.207C349.207 51.5547 349.332 51.043 349.582 50.5586C349.832 50.0742 350.195 49.6484 350.672 49.2812C351.148 48.9062 351.715 48.6133 352.371 48.4023C353.035 48.1914 353.777 48.0859 354.598 48.0859C355.582 48.0859 356.457 48.25 357.223 48.5781C357.988 48.9062 358.59 49.3984 359.027 50.0547C359.473 50.7109 359.695 51.5312 359.695 52.5156V57.9414C359.695 58.6367 359.738 59.207 359.824 59.6523C359.91 60.0898 360.035 60.4727 360.199 60.8008V61H356.789C356.625 60.6562 356.5 60.2266 356.414 59.7109C356.336 59.1875 356.297 58.6641 356.297 58.1406ZM356.742 53.2773L356.766 55.1875H354.879C354.434 55.1875 354.047 55.2383 353.719 55.3398C353.391 55.4414 353.121 55.5859 352.91 55.7734C352.699 55.9531 352.543 56.1641 352.441 56.4062C352.348 56.6484 352.301 56.9141 352.301 57.2031C352.301 57.4922 352.367 57.7539 352.5 57.9883C352.633 58.2148 352.824 58.3945 353.074 58.5273C353.324 58.6523 353.617 58.7148 353.953 58.7148C354.461 58.7148 354.902 58.6133 355.277 58.4102C355.652 58.207 355.941 57.957 356.145 57.6602C356.355 57.3633 356.465 57.082 356.473 56.8164L357.363 58.2461C357.238 58.5664 357.066 58.8984 356.848 59.2422C356.637 59.5859 356.367 59.9102 356.039 60.2148C355.711 60.5117 355.316 60.7578 354.855 60.9531C354.395 61.1406 353.848 61.2344 353.215 61.2344C352.41 61.2344 351.68 61.0742 351.023 60.7539C350.375 60.4258 349.859 59.9766 349.477 59.4062C349.102 58.8281 348.914 58.1719 348.914 57.4375C348.914 56.7734 349.039 56.1836 349.289 55.668C349.539 55.1523 349.906 54.7188 350.391 54.3672C350.883 54.0078 351.496 53.7383 352.23 53.5586C352.965 53.3711 353.816 53.2773 354.785 53.2773H356.742ZM365.672 51.0859V61H362.297V48.3203H365.473L365.672 51.0859ZM369.492 48.2383L369.434 51.3672C369.27 51.3438 369.07 51.3242 368.836 51.3086C368.609 51.2852 368.402 51.2734 368.215 51.2734C367.738 51.2734 367.324 51.3359 366.973 51.4609C366.629 51.5781 366.34 51.7539 366.105 51.9883C365.879 52.2227 365.707 52.5078 365.59 52.8438C365.48 53.1797 365.418 53.5625 365.402 53.9922L364.723 53.7812C364.723 52.9609 364.805 52.207 364.969 51.5195C365.133 50.8242 365.371 50.2188 365.684 49.7031C366.004 49.1875 366.395 48.7891 366.855 48.5078C367.316 48.2266 367.844 48.0859 368.438 48.0859C368.625 48.0859 368.816 48.1016 369.012 48.1328C369.207 48.1562 369.367 48.1914 369.492 48.2383ZM377.531 58.1406V52.4922C377.531 52.0859 377.465 51.7383 377.332 51.4492C377.199 51.1523 376.992 50.9219 376.711 50.7578C376.438 50.5938 376.082 50.5117 375.645 50.5117C375.27 50.5117 374.945 50.5781 374.672 50.7109C374.398 50.8359 374.188 51.0195 374.039 51.2617C373.891 51.4961 373.816 51.7734 373.816 52.0938H370.441C370.441 51.5547 370.566 51.043 370.816 50.5586C371.066 50.0742 371.43 49.6484 371.906 49.2812C372.383 48.9062 372.949 48.6133 373.605 48.4023C374.27 48.1914 375.012 48.0859 375.832 48.0859C376.816 48.0859 377.691 48.25 378.457 48.5781C379.223 48.9062 379.824 49.3984 380.262 50.0547C380.707 50.7109 380.93 51.5312 380.93 52.5156V57.9414C380.93 58.6367 380.973 59.207 381.059 59.6523C381.145 60.0898 381.27 60.4727 381.434 60.8008V61H378.023C377.859 60.6562 377.734 60.2266 377.648 59.7109C377.57 59.1875 377.531 58.6641 377.531 58.1406ZM377.977 53.2773L378 55.1875H376.113C375.668 55.1875 375.281 55.2383 374.953 55.3398C374.625 55.4414 374.355 55.5859 374.145 55.7734C373.934 55.9531 373.777 56.1641 373.676 56.4062C373.582 56.6484 373.535 56.9141 373.535 57.2031C373.535 57.4922 373.602 57.7539 373.734 57.9883C373.867 58.2148 374.059 58.3945 374.309 58.5273C374.559 58.6523 374.852 58.7148 375.188 58.7148C375.695 58.7148 376.137 58.6133 376.512 58.4102C376.887 58.207 377.176 57.957 377.379 57.6602C377.59 57.3633 377.699 57.082 377.707 56.8164L378.598 58.2461C378.473 58.5664 378.301 58.8984 378.082 59.2422C377.871 59.5859 377.602 59.9102 377.273 60.2148C376.945 60.5117 376.551 60.7578 376.09 60.9531C375.629 61.1406 375.082 61.2344 374.449 61.2344C373.645 61.2344 372.914 61.0742 372.258 60.7539C371.609 60.4258 371.094 59.9766 370.711 59.4062C370.336 58.8281 370.148 58.1719 370.148 57.4375C370.148 56.7734 370.273 56.1836 370.523 55.668C370.773 55.1523 371.141 54.7188 371.625 54.3672C372.117 54.0078 372.73 53.7383 373.465 53.5586C374.199 53.3711 375.051 53.2773 376.02 53.2773H377.977ZM387.656 58.5391L390.469 48.3203H393.996L389.719 61H387.586L387.656 58.5391ZM385.723 48.3203L388.547 58.5508L388.605 61H386.461L382.184 48.3203H385.723ZM401.18 61.2344C400.195 61.2344 399.312 61.0781 398.531 60.7656C397.75 60.4453 397.086 60.0039 396.539 59.4414C396 58.8789 395.586 58.2266 395.297 57.4844C395.008 56.7344 394.863 55.9375 394.863 55.0938V54.625C394.863 53.6641 395 52.7852 395.273 51.9883C395.547 51.1914 395.938 50.5 396.445 49.9141C396.961 49.3281 397.586 48.8789 398.32 48.5664C399.055 48.2461 399.883 48.0859 400.805 48.0859C401.703 48.0859 402.5 48.2344 403.195 48.5312C403.891 48.8281 404.473 49.25 404.941 49.7969C405.418 50.3438 405.777 51 406.02 51.7656C406.262 52.5234 406.383 53.3672 406.383 54.2969V55.7031H396.305V53.4531H403.066V53.1953C403.066 52.7266 402.98 52.3086 402.809 51.9414C402.645 51.5664 402.395 51.2695 402.059 51.0508C401.723 50.832 401.293 50.7227 400.77 50.7227C400.324 50.7227 399.941 50.8203 399.621 51.0156C399.301 51.2109 399.039 51.4844 398.836 51.8359C398.641 52.1875 398.492 52.6016 398.391 53.0781C398.297 53.5469 398.25 54.0625 398.25 54.625V55.0938C398.25 55.6016 398.32 56.0703 398.461 56.5C398.609 56.9297 398.816 57.3008 399.082 57.6133C399.355 57.9258 399.684 58.168 400.066 58.3398C400.457 58.5117 400.898 58.5977 401.391 58.5977C402 58.5977 402.566 58.4805 403.09 58.2461C403.621 58.0039 404.078 57.6406 404.461 57.1562L406.102 58.9375C405.836 59.3203 405.473 59.6875 405.012 60.0391C404.559 60.3906 404.012 60.6797 403.371 60.9062C402.73 61.125 402 61.2344 401.18 61.2344ZM411.867 43V61H408.48V43H411.867ZM420.457 54.0625V54.3203C420.457 55.9141 420.277 57.3828 419.918 58.7266C419.559 60.0625 419.082 61.2461 418.488 62.2773C417.902 63.3164 417.258 64.1797 416.555 64.8672C415.859 65.5547 415.164 66.0469 414.469 66.3438L413.812 64.6094C414.258 64.2812 414.691 63.8281 415.113 63.25C415.543 62.6719 415.934 61.9609 416.285 61.1172C416.637 60.2812 416.914 59.3008 417.117 58.1758C417.328 57.0508 417.434 55.7734 417.434 54.3438V54.0391C417.434 52.6094 417.328 51.332 417.117 50.207C416.906 49.082 416.621 48.1016 416.262 47.2656C415.91 46.4219 415.52 45.7148 415.09 45.1445C414.668 44.5664 414.242 44.1133 413.812 43.7852L414.469 42.0391C415.164 42.3359 415.859 42.832 416.555 43.5273C417.258 44.2148 417.902 45.0742 418.488 46.1055C419.082 47.1367 419.559 48.3242 419.918 49.668C420.277 51.0039 420.457 52.4688 420.457 54.0625Z" fill="#888888"/>
<path d="M113.18 109.93C113.18 109.398 113.102 108.922 112.945 108.5C112.789 108.062 112.5 107.656 112.078 107.281C111.656 106.906 111.047 106.531 110.25 106.156C109.469 105.766 108.438 105.359 107.156 104.938C105.656 104.438 104.211 103.875 102.82 103.25C101.43 102.609 100.188 101.867 99.0938 101.023C98 100.164 97.1328 99.1641 96.4922 98.0234C95.8516 96.8672 95.5312 95.5234 95.5312 93.9922C95.5312 92.5234 95.8594 91.2031 96.5156 90.0312C97.1719 88.8438 98.0859 87.8359 99.2578 87.0078C100.445 86.1641 101.836 85.5234 103.43 85.0859C105.023 84.6328 106.766 84.4062 108.656 84.4062C111.156 84.4062 113.359 84.8438 115.266 85.7188C117.188 86.5781 118.688 87.8047 119.766 89.3984C120.859 90.9766 121.406 92.8438 121.406 95H113.227C113.227 94.1406 113.047 93.3828 112.688 92.7266C112.344 92.0703 111.82 91.5547 111.117 91.1797C110.414 90.8047 109.531 90.6172 108.469 90.6172C107.438 90.6172 106.57 90.7734 105.867 91.0859C105.164 91.3984 104.633 91.8203 104.273 92.3516C103.914 92.8672 103.734 93.4375 103.734 94.0625C103.734 94.5781 103.875 95.0469 104.156 95.4688C104.453 95.875 104.867 96.2578 105.398 96.6172C105.945 96.9766 106.602 97.3203 107.367 97.6484C108.148 97.9766 109.023 98.2969 109.992 98.6094C111.805 99.1875 113.414 99.8359 114.82 100.555C116.242 101.258 117.438 102.062 118.406 102.969C119.391 103.859 120.133 104.875 120.633 106.016C121.148 107.156 121.406 108.445 121.406 109.883C121.406 111.414 121.109 112.773 120.516 113.961C119.922 115.148 119.07 116.156 117.961 116.984C116.852 117.797 115.523 118.414 113.977 118.836C112.43 119.258 110.703 119.469 108.797 119.469C107.047 119.469 105.32 119.25 103.617 118.812C101.93 118.359 100.398 117.672 99.0234 116.75C97.6484 115.812 96.5469 114.617 95.7188 113.164C94.9062 111.695 94.5 109.953 94.5 107.938H102.75C102.75 108.938 102.883 109.781 103.148 110.469C103.414 111.156 103.805 111.711 104.32 112.133C104.836 112.539 105.469 112.836 106.219 113.023C106.969 113.195 107.828 113.281 108.797 113.281C109.844 113.281 110.688 113.133 111.328 112.836C111.969 112.523 112.438 112.117 112.734 111.617C113.031 111.102 113.18 110.539 113.18 109.93ZM133.031 99.0547V119H125.133V93.6406H132.539L133.031 99.0547ZM132.094 105.453L130.242 105.5C130.242 103.562 130.477 101.836 130.945 100.32C131.414 98.7891 132.078 97.4922 132.938 96.4297C133.797 95.3672 134.82 94.5625 136.008 94.0156C137.211 93.4531 138.547 93.1719 140.016 93.1719C141.188 93.1719 142.258 93.3438 143.227 93.6875C144.211 94.0312 145.055 94.5859 145.758 95.3516C146.477 96.1172 147.023 97.1328 147.398 98.3984C147.789 99.6484 147.984 101.195 147.984 103.039V119H140.039V103.016C140.039 102 139.898 101.227 139.617 100.695C139.336 100.148 138.93 99.7734 138.398 99.5703C137.867 99.3672 137.219 99.2656 136.453 99.2656C135.641 99.2656 134.953 99.4219 134.391 99.7344C133.828 100.047 133.375 100.484 133.031 101.047C132.703 101.594 132.461 102.242 132.305 102.992C132.164 103.742 132.094 104.562 132.094 105.453ZM165.539 112.625V102.172C165.539 101.453 165.438 100.836 165.234 100.32C165.031 99.8047 164.711 99.4062 164.273 99.125C163.836 98.8281 163.25 98.6797 162.516 98.6797C161.922 98.6797 161.414 98.7812 160.992 98.9844C160.57 99.1875 160.25 99.4922 160.031 99.8984C159.812 100.305 159.703 100.82 159.703 101.445H151.805C151.805 100.273 152.062 99.1875 152.578 98.1875C153.109 97.1719 153.859 96.2891 154.828 95.5391C155.812 94.7891 156.984 94.2109 158.344 93.8047C159.719 93.3828 161.25 93.1719 162.938 93.1719C164.953 93.1719 166.75 93.5078 168.328 94.1797C169.922 94.8516 171.18 95.8594 172.102 97.2031C173.023 98.5312 173.484 100.203 173.484 102.219V112.602C173.484 114.258 173.578 115.516 173.766 116.375C173.953 117.219 174.219 117.961 174.562 118.602V119H166.641C166.266 118.219 165.984 117.266 165.797 116.141C165.625 115 165.539 113.828 165.539 112.625ZM166.5 103.508L166.547 107.727H163.055C162.32 107.727 161.695 107.828 161.18 108.031C160.68 108.234 160.273 108.516 159.961 108.875C159.664 109.219 159.445 109.609 159.305 110.047C159.18 110.484 159.117 110.945 159.117 111.43C159.117 111.898 159.227 112.32 159.445 112.695C159.68 113.055 159.992 113.336 160.383 113.539C160.773 113.742 161.211 113.844 161.695 113.844C162.57 113.844 163.312 113.68 163.922 113.352C164.547 113.008 165.023 112.594 165.352 112.109C165.68 111.625 165.844 111.172 165.844 110.75L167.578 113.984C167.266 114.609 166.906 115.242 166.5 115.883C166.109 116.523 165.617 117.117 165.023 117.664C164.445 118.195 163.734 118.633 162.891 118.977C162.047 119.305 161.023 119.469 159.82 119.469C158.258 119.469 156.82 119.148 155.508 118.508C154.211 117.867 153.172 116.977 152.391 115.836C151.609 114.68 151.219 113.352 151.219 111.852C151.219 110.539 151.453 109.367 151.922 108.336C152.406 107.305 153.133 106.43 154.102 105.711C155.07 104.992 156.305 104.445 157.805 104.07C159.305 103.695 161.07 103.508 163.102 103.508H166.5ZM185.836 98.5156V128.75H177.938V93.6406H185.297L185.836 98.5156ZM201.398 106.016V106.508C201.398 108.352 201.188 110.062 200.766 111.641C200.344 113.219 199.719 114.594 198.891 115.766C198.062 116.938 197.031 117.852 195.797 118.508C194.578 119.148 193.164 119.469 191.555 119.469C190.039 119.469 188.734 119.133 187.641 118.461C186.547 117.789 185.633 116.859 184.898 115.672C184.164 114.484 183.57 113.125 183.117 111.594C182.664 110.062 182.305 108.445 182.039 106.742V106.109C182.305 104.281 182.664 102.586 183.117 101.023C183.57 99.4453 184.164 98.0703 184.898 96.8984C185.633 95.7266 186.539 94.8125 187.617 94.1562C188.711 93.5 190.016 93.1719 191.531 93.1719C193.141 93.1719 194.555 93.4766 195.773 94.0859C197.008 94.6953 198.039 95.5703 198.867 96.7109C199.711 97.8359 200.344 99.1875 200.766 100.766C201.188 102.344 201.398 104.094 201.398 106.016ZM193.5 106.508V106.016C193.5 105.031 193.43 104.133 193.289 103.32C193.148 102.492 192.922 101.773 192.609 101.164C192.312 100.555 191.914 100.086 191.414 99.7578C190.914 99.4297 190.297 99.2656 189.562 99.2656C188.719 99.2656 188.008 99.3984 187.43 99.6641C186.867 99.9141 186.414 100.305 186.07 100.836C185.742 101.352 185.508 102 185.367 102.781C185.242 103.547 185.188 104.445 185.203 105.477V107.398C185.172 108.586 185.289 109.633 185.555 110.539C185.82 111.43 186.281 112.125 186.938 112.625C187.594 113.125 188.484 113.375 189.609 113.375C190.359 113.375 190.984 113.203 191.484 112.859C191.984 112.5 192.383 112.008 192.68 111.383C192.977 110.742 193.188 110.008 193.312 109.18C193.438 108.352 193.5 107.461 193.5 106.508ZM218.203 111.875C218.203 111.438 218.055 111.062 217.758 110.75C217.477 110.422 216.977 110.125 216.258 109.859C215.539 109.578 214.531 109.297 213.234 109.016C212 108.75 210.836 108.398 209.742 107.961C208.664 107.523 207.719 106.992 206.906 106.367C206.094 105.742 205.453 105 204.984 104.141C204.531 103.281 204.305 102.297 204.305 101.188C204.305 100.109 204.531 99.0938 204.984 98.1406C205.453 97.1719 206.133 96.3203 207.023 95.5859C207.93 94.8359 209.031 94.25 210.328 93.8281C211.625 93.3906 213.102 93.1719 214.758 93.1719C217.039 93.1719 219.008 93.5234 220.664 94.2266C222.32 94.9141 223.594 95.8828 224.484 97.1328C225.391 98.3672 225.844 99.7969 225.844 101.422H217.945C217.945 100.781 217.836 100.234 217.617 99.7812C217.414 99.3281 217.078 98.9844 216.609 98.75C216.141 98.5 215.516 98.375 214.734 98.375C214.188 98.375 213.688 98.4766 213.234 98.6797C212.797 98.8828 212.445 99.1641 212.18 99.5234C211.914 99.8828 211.781 100.305 211.781 100.789C211.781 101.133 211.859 101.445 212.016 101.727C212.188 101.992 212.445 102.242 212.789 102.477C213.133 102.695 213.57 102.898 214.102 103.086C214.633 103.258 215.273 103.414 216.023 103.555C217.727 103.867 219.32 104.312 220.805 104.891C222.289 105.469 223.492 106.289 224.414 107.352C225.352 108.414 225.82 109.844 225.82 111.641C225.82 112.766 225.562 113.805 225.047 114.758C224.531 115.695 223.789 116.523 222.82 117.242C221.852 117.945 220.688 118.492 219.328 118.883C217.969 119.273 216.438 119.469 214.734 119.469C212.312 119.469 210.266 119.039 208.594 118.18C206.922 117.305 205.656 116.211 204.797 114.898C203.953 113.57 203.531 112.227 203.531 110.867H210.891C210.922 111.648 211.109 112.289 211.453 112.789C211.812 113.289 212.289 113.656 212.883 113.891C213.477 114.125 214.164 114.242 214.945 114.242C215.664 114.242 216.258 114.141 216.727 113.938C217.211 113.734 217.578 113.461 217.828 113.117C218.078 112.758 218.203 112.344 218.203 111.875ZM237.258 83V119H229.359V83H237.258ZM236.32 105.453L234.469 105.5C234.469 103.719 234.688 102.078 235.125 100.578C235.562 99.0781 236.188 97.7734 237 96.6641C237.812 95.5547 238.789 94.6953 239.93 94.0859C241.07 93.4766 242.336 93.1719 243.727 93.1719C244.977 93.1719 246.117 93.3516 247.148 93.7109C248.195 94.0703 249.094 94.6484 249.844 95.4453C250.609 96.2422 251.195 97.2812 251.602 98.5625C252.023 99.8438 252.234 101.406 252.234 103.25V119H244.289V103.203C244.289 102.172 244.141 101.375 243.844 100.812C243.562 100.234 243.156 99.8359 242.625 99.6172C242.094 99.3828 241.445 99.2656 240.68 99.2656C239.758 99.2656 239.008 99.4219 238.43 99.7344C237.852 100.047 237.406 100.484 237.094 101.047C236.797 101.594 236.594 102.242 236.484 102.992C236.375 103.742 236.32 104.562 236.32 105.453ZM255.633 106.578V106.086C255.633 104.227 255.898 102.516 256.43 100.953C256.961 99.375 257.742 98.0078 258.773 96.8516C259.805 95.6953 261.078 94.7969 262.594 94.1562C264.109 93.5 265.859 93.1719 267.844 93.1719C269.844 93.1719 271.602 93.5 273.117 94.1562C274.648 94.7969 275.93 95.6953 276.961 96.8516C277.992 98.0078 278.773 99.375 279.305 100.953C279.836 102.516 280.102 104.227 280.102 106.086V106.578C280.102 108.422 279.836 110.133 279.305 111.711C278.773 113.273 277.992 114.641 276.961 115.812C275.93 116.969 274.656 117.867 273.141 118.508C271.625 119.148 269.875 119.469 267.891 119.469C265.906 119.469 264.148 119.148 262.617 118.508C261.086 117.867 259.805 116.969 258.773 115.812C257.742 114.641 256.961 113.273 256.43 111.711C255.898 110.133 255.633 108.422 255.633 106.578ZM263.531 106.086V106.578C263.531 107.531 263.602 108.422 263.742 109.25C263.883 110.078 264.117 110.805 264.445 111.43C264.773 112.039 265.219 112.516 265.781 112.859C266.344 113.203 267.047 113.375 267.891 113.375C268.719 113.375 269.406 113.203 269.953 112.859C270.516 112.516 270.961 112.039 271.289 111.43C271.617 110.805 271.852 110.078 271.992 109.25C272.133 108.422 272.203 107.531 272.203 106.578V106.086C272.203 105.164 272.133 104.297 271.992 103.484C271.852 102.656 271.617 101.93 271.289 101.305C270.961 100.664 270.516 100.164 269.953 99.8047C269.391 99.4453 268.688 99.2656 267.844 99.2656C267.016 99.2656 266.32 99.4453 265.758 99.8047C265.211 100.164 264.773 100.664 264.445 101.305C264.117 101.93 263.883 102.656 263.742 103.484C263.602 104.297 263.531 105.164 263.531 106.086ZM296.977 93.6406V99.125H281.695V93.6406H296.977ZM284.906 87.3359H292.805V110.727C292.805 111.398 292.883 111.922 293.039 112.297C293.195 112.656 293.461 112.914 293.836 113.07C294.227 113.211 294.742 113.281 295.383 113.281C295.836 113.281 296.211 113.273 296.508 113.258C296.805 113.227 297.086 113.188 297.352 113.141V118.789C296.68 119.008 295.977 119.172 295.242 119.281C294.508 119.406 293.727 119.469 292.898 119.469C291.211 119.469 289.766 119.203 288.562 118.672C287.375 118.141 286.469 117.305 285.844 116.164C285.219 115.023 284.906 113.539 284.906 111.711V87.3359ZM313.406 111.875C313.406 111.438 313.258 111.062 312.961 110.75C312.68 110.422 312.18 110.125 311.461 109.859C310.742 109.578 309.734 109.297 308.438 109.016C307.203 108.75 306.039 108.398 304.945 107.961C303.867 107.523 302.922 106.992 302.109 106.367C301.297 105.742 300.656 105 300.188 104.141C299.734 103.281 299.508 102.297 299.508 101.188C299.508 100.109 299.734 99.0938 300.188 98.1406C300.656 97.1719 301.336 96.3203 302.227 95.5859C303.133 94.8359 304.234 94.25 305.531 93.8281C306.828 93.3906 308.305 93.1719 309.961 93.1719C312.242 93.1719 314.211 93.5234 315.867 94.2266C317.523 94.9141 318.797 95.8828 319.688 97.1328C320.594 98.3672 321.047 99.7969 321.047 101.422H313.148C313.148 100.781 313.039 100.234 312.82 99.7812C312.617 99.3281 312.281 98.9844 311.812 98.75C311.344 98.5 310.719 98.375 309.938 98.375C309.391 98.375 308.891 98.4766 308.438 98.6797C308 98.8828 307.648 99.1641 307.383 99.5234C307.117 99.8828 306.984 100.305 306.984 100.789C306.984 101.133 307.062 101.445 307.219 101.727C307.391 101.992 307.648 102.242 307.992 102.477C308.336 102.695 308.773 102.898 309.305 103.086C309.836 103.258 310.477 103.414 311.227 103.555C312.93 103.867 314.523 104.312 316.008 104.891C317.492 105.469 318.695 106.289 319.617 107.352C320.555 108.414 321.023 109.844 321.023 111.641C321.023 112.766 320.766 113.805 320.25 114.758C319.734 115.695 318.992 116.523 318.023 117.242C317.055 117.945 315.891 118.492 314.531 118.883C313.172 119.273 311.641 119.469 309.938 119.469C307.516 119.469 305.469 119.039 303.797 118.18C302.125 117.305 300.859 116.211 300 114.898C299.156 113.57 298.734 112.227 298.734 110.867H306.094C306.125 111.648 306.312 112.289 306.656 112.789C307.016 113.289 307.492 113.656 308.086 113.891C308.68 114.125 309.367 114.242 310.148 114.242C310.867 114.242 311.461 114.141 311.93 113.938C312.414 113.734 312.781 113.461 313.031 113.117C313.281 112.758 313.406 112.344 313.406 111.875Z" fill="black"/>
<path d="M1134 0H1348C1356.28 0 1363 6.71573 1363 15V148C1363 156.284 1356.28 163 1348 163H1134V0Z" fill="#F03C2E"/>
<path fill-rule="evenodd" clip-rule="evenodd" d="M1202.75 46.5018C1202.75 45.3973 1203.65 44.5018 1204.75 44.5018H1292.25C1293.35 44.5018 1294.25 45.3973 1294.25 46.5018V116.498C1294.25 117.603 1293.35 118.498 1292.25 118.498H1204.75C1203.65 118.498 1202.75 117.603 1202.75 116.498V46.5018ZM1206.75 48.5018V52.9963H1290.25V48.5018H1206.75ZM1290.25 56.9963H1235.19V114.498H1290.25V56.9963ZM1231.19 114.498V56.9963H1206.75V114.498H1231.19Z" fill="white"/>
<path fill-rule="evenodd" clip-rule="evenodd" d="M1209.72 62.3022C1209.72 61.1976 1210.62 60.3022 1211.72 60.3022H1225.72C1226.83 60.3022 1227.72 61.1976 1227.72 62.3022V81.6974C1227.72 82.802 1226.83 83.6974 1225.72 83.6974H1211.72C1210.62 83.6974 1209.72 82.802 1209.72 81.6974V62.3022ZM1213.72 64.3022V79.6974H1223.72V64.3022H1213.72ZM1239.33 63.1982C1239.33 62.0936 1240.22 61.1982 1241.33 61.1982H1284.25C1285.36 61.1982 1286.25 62.0936 1286.25 63.1982V109.407C1286.25 110.511 1285.36 111.407 1284.25 111.407H1241.33C1240.22 111.407 1239.33 110.511 1239.33 109.407V63.1982ZM1243.33 65.1982V107.407H1282.25V65.1982H1243.33ZM1209.56 93.4381C1209.56 92.3336 1210.46 91.4381 1211.56 91.4381H1220.48C1221.59 91.4381 1222.48 92.3336 1222.48 93.4381C1222.48 94.5427 1221.59 95.4381 1220.48 95.4381H1211.56C1210.46 95.4381 1209.56 94.5427 1209.56 93.4381ZM1209.56 100.438C1209.56 99.3335 1210.46 98.4381 1211.56 98.4381H1226.1C1227.21 98.4381 1228.1 99.3335 1228.1 100.438C1228.1 101.543 1227.21 102.438 1226.1 102.438H1211.56C1210.46 102.438 1209.56 101.543 1209.56 100.438ZM1209.56 107.438C1209.56 106.334 1210.46 105.438 1211.56 105.438H1220.48C1221.59 105.438 1222.48 106.334 1222.48 107.438C1222.48 108.543 1221.59 109.438 1220.48 109.438H1211.56C1210.46 109.438 1209.56 108.543 1209.56 107.438Z" fill="white"/>
</svg>
