<svg width="1363" height="163" viewBox="0 0 1363 163" fill="none" xmlns="http://www.w3.org/2000/svg">
<path d="M0 15C0 6.71573 6.71573 0 15 0H37V163H15C6.71573 163 0 156.284 0 148V15Z" fill="#424242"/>
<rect width="1097" height="163" transform="translate(37)" fill="#F0F0F0"/>
<path d="M100.148 61.2344C99.1641 61.2344 98.2812 61.0781 97.5 60.7656C96.7188 60.4453 96.0547 60.0039 95.5078 59.4414C94.9688 58.8789 94.5547 58.2266 94.2656 57.4844C93.9766 56.7344 93.832 55.9375 93.832 55.0938V54.625C93.832 53.6641 93.9688 52.7852 94.2422 51.9883C94.5156 51.1914 94.9062 50.5 95.4141 49.9141C95.9297 49.3281 96.5547 48.8789 97.2891 48.5664C98.0234 48.2461 98.8516 48.0859 99.7734 48.0859C100.672 48.0859 101.469 48.2344 102.164 48.5312C102.859 48.8281 103.441 49.25 103.91 49.7969C104.387 50.3438 104.746 51 104.988 51.7656C105.23 52.5234 105.352 53.3672 105.352 54.2969V55.7031H95.2734V53.4531H102.035V53.1953C102.035 52.7266 101.949 52.3086 101.777 51.9414C101.613 51.5664 101.363 51.2695 101.027 51.0508C100.691 50.832 100.262 50.7227 99.7383 50.7227C99.293 50.7227 98.9102 50.8203 98.5898 51.0156C98.2695 51.2109 98.0078 51.4844 97.8047 51.8359C97.6094 52.1875 97.4609 52.6016 97.3594 53.0781C97.2656 53.5469 97.2188 54.0625 97.2188 54.625V55.0938C97.2188 55.6016 97.2891 56.0703 97.4297 56.5C97.5781 56.9297 97.7852 57.3008 98.0508 57.6133C98.3242 57.9258 98.6523 58.168 99.0352 58.3398C99.4258 58.5117 99.8672 58.5977 100.359 58.5977C100.969 58.5977 101.535 58.4805 102.059 58.2461C102.59 58.0039 103.047 57.6406 103.43 57.1562L105.07 58.9375C104.805 59.3203 104.441 59.6875 103.98 60.0391C103.527 60.3906 102.98 60.6797 102.34 60.9062C101.699 61.125 100.969 61.2344 100.148 61.2344ZM113.93 52.3516V55H107.309V52.3516H113.93ZM121.98 58.5977C122.395 58.5977 122.762 58.5195 123.082 58.3633C123.402 58.1992 123.652 57.9727 123.832 57.6836C124.02 57.3867 124.117 57.0391 124.125 56.6406H127.301C127.293 57.5312 127.055 58.3242 126.586 59.0195C126.117 59.707 125.488 60.25 124.699 60.6484C123.91 61.0391 123.027 61.2344 122.051 61.2344C121.066 61.2344 120.207 61.0703 119.473 60.7422C118.746 60.4141 118.141 59.9609 117.656 59.3828C117.172 58.7969 116.809 58.1172 116.566 57.3438C116.324 56.5625 116.203 55.7266 116.203 54.8359V54.4961C116.203 53.5977 116.324 52.7617 116.566 51.9883C116.809 51.207 117.172 50.5273 117.656 49.9492C118.141 49.3633 118.746 48.9062 119.473 48.5781C120.199 48.25 121.051 48.0859 122.027 48.0859C123.066 48.0859 123.977 48.2852 124.758 48.6836C125.547 49.082 126.164 49.6523 126.609 50.3945C127.062 51.1289 127.293 52 127.301 53.0078H124.125C124.117 52.5859 124.027 52.2031 123.855 51.8594C123.691 51.5156 123.449 51.2422 123.129 51.0391C122.816 50.8281 122.43 50.7227 121.969 50.7227C121.477 50.7227 121.074 50.8281 120.762 51.0391C120.449 51.2422 120.207 51.5234 120.035 51.8828C119.863 52.2344 119.742 52.6367 119.672 53.0898C119.609 53.5352 119.578 54.0039 119.578 54.4961V54.8359C119.578 55.3281 119.609 55.8008 119.672 56.2539C119.734 56.707 119.852 57.1094 120.023 57.4609C120.203 57.8125 120.449 58.0898 120.762 58.293C121.074 58.4961 121.48 58.5977 121.98 58.5977ZM128.719 54.7891V54.543C128.719 53.6133 128.852 52.7578 129.117 51.9766C129.383 51.1875 129.77 50.5039 130.277 49.9258C130.785 49.3477 131.41 48.8984 132.152 48.5781C132.895 48.25 133.746 48.0859 134.707 48.0859C135.668 48.0859 136.523 48.25 137.273 48.5781C138.023 48.8984 138.652 49.3477 139.16 49.9258C139.676 50.5039 140.066 51.1875 140.332 51.9766C140.598 52.7578 140.73 53.6133 140.73 54.543V54.7891C140.73 55.7109 140.598 56.5664 140.332 57.3555C140.066 58.1367 139.676 58.8203 139.16 59.4062C138.652 59.9844 138.027 60.4336 137.285 60.7539C136.543 61.0742 135.691 61.2344 134.73 61.2344C133.77 61.2344 132.914 61.0742 132.164 60.7539C131.422 60.4336 130.793 59.9844 130.277 59.4062C129.77 58.8203 129.383 58.1367 129.117 57.3555C128.852 56.5664 128.719 55.7109 128.719 54.7891ZM132.094 54.543V54.7891C132.094 55.3203 132.141 55.8164 132.234 56.2773C132.328 56.7383 132.477 57.1445 132.68 57.4961C132.891 57.8398 133.164 58.1094 133.5 58.3047C133.836 58.5 134.246 58.5977 134.73 58.5977C135.199 58.5977 135.602 58.5 135.938 58.3047C136.273 58.1094 136.543 57.8398 136.746 57.4961C136.949 57.1445 137.098 56.7383 137.191 56.2773C137.293 55.8164 137.344 55.3203 137.344 54.7891V54.543C137.344 54.0273 137.293 53.543 137.191 53.0898C137.098 52.6289 136.945 52.2227 136.734 51.8711C136.531 51.5117 136.262 51.2305 135.926 51.0273C135.59 50.8242 135.184 50.7227 134.707 50.7227C134.23 50.7227 133.824 50.8242 133.488 51.0273C133.16 51.2305 132.891 51.5117 132.68 51.8711C132.477 52.2227 132.328 52.6289 132.234 53.0898C132.141 53.543 132.094 54.0273 132.094 54.543ZM146.18 50.9453V61H142.793V48.3203H145.969L146.18 50.9453ZM145.711 54.2148H144.773C144.773 53.332 144.879 52.5195 145.09 51.7773C145.309 51.0273 145.625 50.3789 146.039 49.832C146.461 49.2773 146.98 48.8477 147.598 48.543C148.215 48.2383 148.93 48.0859 149.742 48.0859C150.305 48.0859 150.82 48.1719 151.289 48.3438C151.758 48.5078 152.16 48.7695 152.496 49.1289C152.84 49.4805 153.105 49.9414 153.293 50.5117C153.48 51.0742 153.574 51.75 153.574 52.5391V61H150.199V52.9141C150.199 52.3359 150.121 51.8906 149.965 51.5781C149.809 51.2656 149.586 51.0469 149.297 50.9219C149.016 50.7969 148.676 50.7344 148.277 50.7344C147.84 50.7344 147.457 50.8242 147.129 51.0039C146.809 51.1836 146.543 51.4336 146.332 51.7539C146.121 52.0664 145.965 52.4336 145.863 52.8555C145.762 53.2773 145.711 53.7305 145.711 54.2148ZM153.258 53.8281L152.051 53.9805C152.051 53.1523 152.152 52.3828 152.355 51.6719C152.566 50.9609 152.875 50.3359 153.281 49.7969C153.695 49.2578 154.207 48.8398 154.816 48.543C155.426 48.2383 156.129 48.0859 156.926 48.0859C157.535 48.0859 158.09 48.1758 158.59 48.3555C159.09 48.5273 159.516 48.8047 159.867 49.1875C160.227 49.5625 160.5 50.0547 160.688 50.6641C160.883 51.2734 160.98 52.0195 160.98 52.9023V61H157.594V52.9023C157.594 52.3164 157.516 51.8711 157.359 51.5664C157.211 51.2539 156.992 51.0391 156.703 50.9219C156.422 50.7969 156.086 50.7344 155.695 50.7344C155.289 50.7344 154.934 50.8164 154.629 50.9805C154.324 51.1367 154.07 51.3555 153.867 51.6367C153.664 51.918 153.512 52.2461 153.41 52.6211C153.309 52.9883 153.258 53.3906 153.258 53.8281ZM166.969 50.9453V61H163.582V48.3203H166.758L166.969 50.9453ZM166.5 54.2148H165.562C165.562 53.332 165.668 52.5195 165.879 51.7773C166.098 51.0273 166.414 50.3789 166.828 49.832C167.25 49.2773 167.77 48.8477 168.387 48.543C169.004 48.2383 169.719 48.0859 170.531 48.0859C171.094 48.0859 171.609 48.1719 172.078 48.3438C172.547 48.5078 172.949 48.7695 173.285 49.1289C173.629 49.4805 173.895 49.9414 174.082 50.5117C174.27 51.0742 174.363 51.75 174.363 52.5391V61H170.988V52.9141C170.988 52.3359 170.91 51.8906 170.754 51.5781C170.598 51.2656 170.375 51.0469 170.086 50.9219C169.805 50.7969 169.465 50.7344 169.066 50.7344C168.629 50.7344 168.246 50.8242 167.918 51.0039C167.598 51.1836 167.332 51.4336 167.121 51.7539C166.91 52.0664 166.754 52.4336 166.652 52.8555C166.551 53.2773 166.5 53.7305 166.5 54.2148ZM174.047 53.8281L172.84 53.9805C172.84 53.1523 172.941 52.3828 173.145 51.6719C173.355 50.9609 173.664 50.3359 174.07 49.7969C174.484 49.2578 174.996 48.8398 175.605 48.543C176.215 48.2383 176.918 48.0859 177.715 48.0859C178.324 48.0859 178.879 48.1758 179.379 48.3555C179.879 48.5273 180.305 48.8047 180.656 49.1875C181.016 49.5625 181.289 50.0547 181.477 50.6641C181.672 51.2734 181.77 52.0195 181.77 52.9023V61H178.383V52.9023C178.383 52.3164 178.305 51.8711 178.148 51.5664C178 51.2539 177.781 51.0391 177.492 50.9219C177.211 50.7969 176.875 50.7344 176.484 50.7344C176.078 50.7344 175.723 50.8164 175.418 50.9805C175.113 51.1367 174.859 51.3555 174.656 51.6367C174.453 51.918 174.301 52.2461 174.199 52.6211C174.098 52.9883 174.047 53.3906 174.047 53.8281ZM190.219 61.2344C189.234 61.2344 188.352 61.0781 187.57 60.7656C186.789 60.4453 186.125 60.0039 185.578 59.4414C185.039 58.8789 184.625 58.2266 184.336 57.4844C184.047 56.7344 183.902 55.9375 183.902 55.0938V54.625C183.902 53.6641 184.039 52.7852 184.312 51.9883C184.586 51.1914 184.977 50.5 185.484 49.9141C186 49.3281 186.625 48.8789 187.359 48.5664C188.094 48.2461 188.922 48.0859 189.844 48.0859C190.742 48.0859 191.539 48.2344 192.234 48.5312C192.93 48.8281 193.512 49.25 193.98 49.7969C194.457 50.3438 194.816 51 195.059 51.7656C195.301 52.5234 195.422 53.3672 195.422 54.2969V55.7031H185.344V53.4531H192.105V53.1953C192.105 52.7266 192.02 52.3086 191.848 51.9414C191.684 51.5664 191.434 51.2695 191.098 51.0508C190.762 50.832 190.332 50.7227 189.809 50.7227C189.363 50.7227 188.98 50.8203 188.66 51.0156C188.34 51.2109 188.078 51.4844 187.875 51.8359C187.68 52.1875 187.531 52.6016 187.43 53.0781C187.336 53.5469 187.289 54.0625 187.289 54.625V55.0938C187.289 55.6016 187.359 56.0703 187.5 56.5C187.648 56.9297 187.855 57.3008 188.121 57.6133C188.395 57.9258 188.723 58.168 189.105 58.3398C189.496 58.5117 189.938 58.5977 190.43 58.5977C191.039 58.5977 191.605 58.4805 192.129 58.2461C192.66 58.0039 193.117 57.6406 193.5 57.1562L195.141 58.9375C194.875 59.3203 194.512 59.6875 194.051 60.0391C193.598 60.3906 193.051 60.6797 192.41 60.9062C191.77 61.125 191.039 61.2344 190.219 61.2344ZM200.719 51.0859V61H197.344V48.3203H200.52L200.719 51.0859ZM204.539 48.2383L204.48 51.3672C204.316 51.3438 204.117 51.3242 203.883 51.3086C203.656 51.2852 203.449 51.2734 203.262 51.2734C202.785 51.2734 202.371 51.3359 202.02 51.4609C201.676 51.5781 201.387 51.7539 201.152 51.9883C200.926 52.2227 200.754 52.5078 200.637 52.8438C200.527 53.1797 200.465 53.5625 200.449 53.9922L199.77 53.7812C199.77 52.9609 199.852 52.207 200.016 51.5195C200.18 50.8242 200.418 50.2188 200.73 49.7031C201.051 49.1875 201.441 48.7891 201.902 48.5078C202.363 48.2266 202.891 48.0859 203.484 48.0859C203.672 48.0859 203.863 48.1016 204.059 48.1328C204.254 48.1562 204.414 48.1914 204.539 48.2383ZM211.137 58.5977C211.551 58.5977 211.918 58.5195 212.238 58.3633C212.559 58.1992 212.809 57.9727 212.988 57.6836C213.176 57.3867 213.273 57.0391 213.281 56.6406H216.457C216.449 57.5312 216.211 58.3242 215.742 59.0195C215.273 59.707 214.645 60.25 213.855 60.6484C213.066 61.0391 212.184 61.2344 211.207 61.2344C210.223 61.2344 209.363 61.0703 208.629 60.7422C207.902 60.4141 207.297 59.9609 206.812 59.3828C206.328 58.7969 205.965 58.1172 205.723 57.3438C205.48 56.5625 205.359 55.7266 205.359 54.8359V54.4961C205.359 53.5977 205.48 52.7617 205.723 51.9883C205.965 51.207 206.328 50.5273 206.812 49.9492C207.297 49.3633 207.902 48.9062 208.629 48.5781C209.355 48.25 210.207 48.0859 211.184 48.0859C212.223 48.0859 213.133 48.2852 213.914 48.6836C214.703 49.082 215.32 49.6523 215.766 50.3945C216.219 51.1289 216.449 52 216.457 53.0078H213.281C213.273 52.5859 213.184 52.2031 213.012 51.8594C212.848 51.5156 212.605 51.2422 212.285 51.0391C211.973 50.8281 211.586 50.7227 211.125 50.7227C210.633 50.7227 210.23 50.8281 209.918 51.0391C209.605 51.2422 209.363 51.5234 209.191 51.8828C209.02 52.2344 208.898 52.6367 208.828 53.0898C208.766 53.5352 208.734 54.0039 208.734 54.4961V54.8359C208.734 55.3281 208.766 55.8008 208.828 56.2539C208.891 56.707 209.008 57.1094 209.18 57.4609C209.359 57.8125 209.605 58.0898 209.918 58.293C210.23 58.4961 210.637 58.5977 211.137 58.5977ZM224.25 61.2344C223.266 61.2344 222.383 61.0781 221.602 60.7656C220.82 60.4453 220.156 60.0039 219.609 59.4414C219.07 58.8789 218.656 58.2266 218.367 57.4844C218.078 56.7344 217.934 55.9375 217.934 55.0938V54.625C217.934 53.6641 218.07 52.7852 218.344 51.9883C218.617 51.1914 219.008 50.5 219.516 49.9141C220.031 49.3281 220.656 48.8789 221.391 48.5664C222.125 48.2461 222.953 48.0859 223.875 48.0859C224.773 48.0859 225.57 48.2344 226.266 48.5312C226.961 48.8281 227.543 49.25 228.012 49.7969C228.488 50.3438 228.848 51 229.09 51.7656C229.332 52.5234 229.453 53.3672 229.453 54.2969V55.7031H219.375V53.4531H226.137V53.1953C226.137 52.7266 226.051 52.3086 225.879 51.9414C225.715 51.5664 225.465 51.2695 225.129 51.0508C224.793 50.832 224.363 50.7227 223.84 50.7227C223.395 50.7227 223.012 50.8203 222.691 51.0156C222.371 51.2109 222.109 51.4844 221.906 51.8359C221.711 52.1875 221.562 52.6016 221.461 53.0781C221.367 53.5469 221.32 54.0625 221.32 54.625V55.0938C221.32 55.6016 221.391 56.0703 221.531 56.5C221.68 56.9297 221.887 57.3008 222.152 57.6133C222.426 57.9258 222.754 58.168 223.137 58.3398C223.527 58.5117 223.969 58.5977 224.461 58.5977C225.07 58.5977 225.637 58.4805 226.16 58.2461C226.691 58.0039 227.148 57.6406 227.531 57.1562L229.172 58.9375C228.906 59.3203 228.543 59.6875 228.082 60.0391C227.629 60.3906 227.082 60.6797 226.441 60.9062C225.801 61.125 225.07 61.2344 224.25 61.2344ZM237.352 43H240.727V58.0938L240.387 61H237.352V43ZM248.754 54.5312V54.7773C248.754 55.7227 248.652 56.5898 248.449 57.3789C248.254 58.168 247.949 58.8516 247.535 59.4297C247.121 60 246.605 60.4453 245.988 60.7656C245.379 61.0781 244.66 61.2344 243.832 61.2344C243.059 61.2344 242.387 61.0781 241.816 60.7656C241.254 60.4531 240.781 60.0117 240.398 59.4414C240.016 58.8711 239.707 58.2031 239.473 57.4375C239.238 56.6719 239.062 55.8359 238.945 54.9297V54.3906C239.062 53.4844 239.238 52.6484 239.473 51.8828C239.707 51.1172 240.016 50.4492 240.398 49.8789C240.781 49.3086 241.254 48.8672 241.816 48.5547C242.379 48.2422 243.043 48.0859 243.809 48.0859C244.645 48.0859 245.371 48.2461 245.988 48.5664C246.613 48.8789 247.129 49.3242 247.535 49.9023C247.949 50.4727 248.254 51.1523 248.449 51.9414C248.652 52.7227 248.754 53.5859 248.754 54.5312ZM245.379 54.7773V54.5312C245.379 54.0156 245.34 53.5312 245.262 53.0781C245.191 52.6172 245.066 52.2148 244.887 51.8711C244.707 51.5195 244.461 51.2422 244.148 51.0391C243.844 50.8359 243.449 50.7344 242.965 50.7344C242.504 50.7344 242.113 50.8125 241.793 50.9688C241.473 51.125 241.207 51.3438 240.996 51.625C240.793 51.9062 240.641 52.2422 240.539 52.6328C240.438 53.0156 240.375 53.4375 240.352 53.8984V55.4336C240.375 56.0508 240.477 56.5977 240.656 57.0742C240.844 57.543 241.125 57.9141 241.5 58.1875C241.883 58.4531 242.379 58.5859 242.988 58.5859C243.465 58.5859 243.859 58.4922 244.172 58.3047C244.484 58.1172 244.727 57.8516 244.898 57.5078C245.078 57.1641 245.203 56.7617 245.273 56.3008C245.344 55.832 245.379 55.3242 245.379 54.7773ZM257.695 58.1406V52.4922C257.695 52.0859 257.629 51.7383 257.496 51.4492C257.363 51.1523 257.156 50.9219 256.875 50.7578C256.602 50.5938 256.246 50.5117 255.809 50.5117C255.434 50.5117 255.109 50.5781 254.836 50.7109C254.562 50.8359 254.352 51.0195 254.203 51.2617C254.055 51.4961 253.98 51.7734 253.98 52.0938H250.605C250.605 51.5547 250.73 51.043 250.98 50.5586C251.23 50.0742 251.594 49.6484 252.07 49.2812C252.547 48.9062 253.113 48.6133 253.77 48.4023C254.434 48.1914 255.176 48.0859 255.996 48.0859C256.98 48.0859 257.855 48.25 258.621 48.5781C259.387 48.9062 259.988 49.3984 260.426 50.0547C260.871 50.7109 261.094 51.5312 261.094 52.5156V57.9414C261.094 58.6367 261.137 59.207 261.223 59.6523C261.309 60.0898 261.434 60.4727 261.598 60.8008V61H258.188C258.023 60.6562 257.898 60.2266 257.812 59.7109C257.734 59.1875 257.695 58.6641 257.695 58.1406ZM258.141 53.2773L258.164 55.1875H256.277C255.832 55.1875 255.445 55.2383 255.117 55.3398C254.789 55.4414 254.52 55.5859 254.309 55.7734C254.098 55.9531 253.941 56.1641 253.84 56.4062C253.746 56.6484 253.699 56.9141 253.699 57.2031C253.699 57.4922 253.766 57.7539 253.898 57.9883C254.031 58.2148 254.223 58.3945 254.473 58.5273C254.723 58.6523 255.016 58.7148 255.352 58.7148C255.859 58.7148 256.301 58.6133 256.676 58.4102C257.051 58.207 257.34 57.957 257.543 57.6602C257.754 57.3633 257.863 57.082 257.871 56.8164L258.762 58.2461C258.637 58.5664 258.465 58.8984 258.246 59.2422C258.035 59.5859 257.766 59.9102 257.438 60.2148C257.109 60.5117 256.715 60.7578 256.254 60.9531C255.793 61.1406 255.246 61.2344 254.613 61.2344C253.809 61.2344 253.078 61.0742 252.422 60.7539C251.773 60.4258 251.258 59.9766 250.875 59.4062C250.5 58.8281 250.312 58.1719 250.312 57.4375C250.312 56.7734 250.438 56.1836 250.688 55.668C250.938 55.1523 251.305 54.7188 251.789 54.3672C252.281 54.0078 252.895 53.7383 253.629 53.5586C254.363 53.3711 255.215 53.2773 256.184 53.2773H258.141ZM268.934 58.5977C269.348 58.5977 269.715 58.5195 270.035 58.3633C270.355 58.1992 270.605 57.9727 270.785 57.6836C270.973 57.3867 271.07 57.0391 271.078 56.6406H274.254C274.246 57.5312 274.008 58.3242 273.539 59.0195C273.07 59.707 272.441 60.25 271.652 60.6484C270.863 61.0391 269.98 61.2344 269.004 61.2344C268.02 61.2344 267.16 61.0703 266.426 60.7422C265.699 60.4141 265.094 59.9609 264.609 59.3828C264.125 58.7969 263.762 58.1172 263.52 57.3438C263.277 56.5625 263.156 55.7266 263.156 54.8359V54.4961C263.156 53.5977 263.277 52.7617 263.52 51.9883C263.762 51.207 264.125 50.5273 264.609 49.9492C265.094 49.3633 265.699 48.9062 266.426 48.5781C267.152 48.25 268.004 48.0859 268.98 48.0859C270.02 48.0859 270.93 48.2852 271.711 48.6836C272.5 49.082 273.117 49.6523 273.562 50.3945C274.016 51.1289 274.246 52 274.254 53.0078H271.078C271.07 52.5859 270.98 52.2031 270.809 51.8594C270.645 51.5156 270.402 51.2422 270.082 51.0391C269.77 50.8281 269.383 50.7227 268.922 50.7227C268.43 50.7227 268.027 50.8281 267.715 51.0391C267.402 51.2422 267.16 51.5234 266.988 51.8828C266.816 52.2344 266.695 52.6367 266.625 53.0898C266.562 53.5352 266.531 54.0039 266.531 54.4961V54.8359C266.531 55.3281 266.562 55.8008 266.625 56.2539C266.688 56.707 266.805 57.1094 266.977 57.4609C267.156 57.8125 267.402 58.0898 267.715 58.293C268.027 58.4961 268.434 58.5977 268.934 58.5977ZM279.586 42.9883V61H276.211V42.9883H279.586ZM287.578 48.3203L282.07 54.6016L279.117 57.5898L277.887 55.1523L280.23 52.1758L283.523 48.3203H287.578ZM284.074 61L280.324 55.1406L282.656 53.1016L287.965 61H284.074ZM294.633 61.2344C293.648 61.2344 292.766 61.0781 291.984 60.7656C291.203 60.4453 290.539 60.0039 289.992 59.4414C289.453 58.8789 289.039 58.2266 288.75 57.4844C288.461 56.7344 288.316 55.9375 288.316 55.0938V54.625C288.316 53.6641 288.453 52.7852 288.727 51.9883C289 51.1914 289.391 50.5 289.898 49.9141C290.414 49.3281 291.039 48.8789 291.773 48.5664C292.508 48.2461 293.336 48.0859 294.258 48.0859C295.156 48.0859 295.953 48.2344 296.648 48.5312C297.344 48.8281 297.926 49.25 298.395 49.7969C298.871 50.3438 299.23 51 299.473 51.7656C299.715 52.5234 299.836 53.3672 299.836 54.2969V55.7031H289.758V53.4531H296.52V53.1953C296.52 52.7266 296.434 52.3086 296.262 51.9414C296.098 51.5664 295.848 51.2695 295.512 51.0508C295.176 50.832 294.746 50.7227 294.223 50.7227C293.777 50.7227 293.395 50.8203 293.074 51.0156C292.754 51.2109 292.492 51.4844 292.289 51.8359C292.094 52.1875 291.945 52.6016 291.844 53.0781C291.75 53.5469 291.703 54.0625 291.703 54.625V55.0938C291.703 55.6016 291.773 56.0703 291.914 56.5C292.062 56.9297 292.27 57.3008 292.535 57.6133C292.809 57.9258 293.137 58.168 293.52 58.3398C293.91 58.5117 294.352 58.5977 294.844 58.5977C295.453 58.5977 296.02 58.4805 296.543 58.2461C297.074 58.0039 297.531 57.6406 297.914 57.1562L299.555 58.9375C299.289 59.3203 298.926 59.6875 298.465 60.0391C298.012 60.3906 297.465 60.6797 296.824 60.9062C296.184 61.125 295.453 61.2344 294.633 61.2344ZM305.062 51.0273V61H301.688V48.3203H304.852L305.062 51.0273ZM304.57 54.2148H303.656C303.656 53.2773 303.777 52.4336 304.02 51.6836C304.262 50.9258 304.602 50.2812 305.039 49.75C305.477 49.2109 305.996 48.8008 306.598 48.5195C307.207 48.2305 307.887 48.0859 308.637 48.0859C309.23 48.0859 309.773 48.1719 310.266 48.3438C310.758 48.5156 311.18 48.7891 311.531 49.1641C311.891 49.5391 312.164 50.0352 312.352 50.6523C312.547 51.2695 312.645 52.0234 312.645 52.9141V61H309.246V52.9023C309.246 52.3398 309.168 51.9023 309.012 51.5898C308.855 51.2773 308.625 51.0586 308.32 50.9336C308.023 50.8008 307.656 50.7344 307.219 50.7344C306.766 50.7344 306.371 50.8242 306.035 51.0039C305.707 51.1836 305.434 51.4336 305.215 51.7539C305.004 52.0664 304.844 52.4336 304.734 52.8555C304.625 53.2773 304.57 53.7305 304.57 54.2148ZM322.699 58.2344V43H326.098V61H323.039L322.699 58.2344ZM314.684 54.8125V54.5664C314.684 53.5977 314.793 52.7188 315.012 51.9297C315.23 51.1328 315.551 50.4492 315.973 49.8789C316.395 49.3086 316.914 48.8672 317.531 48.5547C318.148 48.2422 318.852 48.0859 319.641 48.0859C320.383 48.0859 321.031 48.2422 321.586 48.5547C322.148 48.8672 322.625 49.3125 323.016 49.8906C323.414 50.4609 323.734 51.1367 323.977 51.918C324.219 52.6914 324.395 53.5391 324.504 54.4609V55C324.395 55.8828 324.219 56.7031 323.977 57.4609C323.734 58.2188 323.414 58.8828 323.016 59.4531C322.625 60.0156 322.148 60.4531 321.586 60.7656C321.023 61.0781 320.367 61.2344 319.617 61.2344C318.828 61.2344 318.125 61.0742 317.508 60.7539C316.898 60.4336 316.383 59.9844 315.961 59.4062C315.547 58.8281 315.23 58.1484 315.012 57.3672C314.793 56.5859 314.684 55.7344 314.684 54.8125ZM318.059 54.5664V54.8125C318.059 55.3359 318.098 55.8242 318.176 56.2773C318.262 56.7305 318.398 57.1328 318.586 57.4844C318.781 57.8281 319.031 58.0977 319.336 58.293C319.648 58.4805 320.027 58.5742 320.473 58.5742C321.051 58.5742 321.527 58.4453 321.902 58.1875C322.277 57.9219 322.562 57.5586 322.758 57.0977C322.961 56.6367 323.078 56.1055 323.109 55.5039V53.9688C323.086 53.4766 323.016 53.0352 322.898 52.6445C322.789 52.2461 322.625 51.9062 322.406 51.625C322.195 51.3438 321.93 51.125 321.609 50.9688C321.297 50.8125 320.926 50.7344 320.496 50.7344C320.059 50.7344 319.684 50.8359 319.371 51.0391C319.059 51.2344 318.805 51.5039 318.609 51.8477C318.422 52.1914 318.281 52.5977 318.188 53.0664C318.102 53.5273 318.059 54.0273 318.059 54.5664ZM334.863 54.3203V54.0625C334.863 52.4141 335.035 50.918 335.379 49.5742C335.73 48.2305 336.191 47.0508 336.762 46.0352C337.34 45.0117 337.969 44.1641 338.648 43.4922C339.328 42.8203 340.004 42.3359 340.676 42.0391L341.32 43.8203C340.875 44.1484 340.438 44.6016 340.008 45.1797C339.578 45.75 339.188 46.4531 338.836 47.2891C338.492 48.1172 338.215 49.0938 338.004 50.2188C337.793 51.3359 337.688 52.6094 337.688 54.0391V54.3438C337.688 55.7734 337.793 57.0508 338.004 58.1758C338.215 59.293 338.492 60.2695 338.836 61.1055C339.188 61.9492 339.578 62.6602 340.008 63.2383C340.438 63.8164 340.875 64.2734 341.32 64.6094L340.676 66.3438C340.004 66.0469 339.328 65.5625 338.648 64.8906C337.969 64.2266 337.34 63.3828 336.762 62.3594C336.191 61.3438 335.73 60.1641 335.379 58.8203C335.035 57.4688 334.863 55.9688 334.863 54.3203ZM346.664 43V61H343.277V43H346.664ZM356.297 58.1406V52.4922C356.297 52.0859 356.23 51.7383 356.098 51.4492C355.965 51.1523 355.758 50.9219 355.477 50.7578C355.203 50.5938 354.848 50.5117 354.41 50.5117C354.035 50.5117 353.711 50.5781 353.438 50.7109C353.164 50.8359 352.953 51.0195 352.805 51.2617C352.656 51.4961 352.582 51.7734 352.582 52.0938H349.207C349.207 51.5547 349.332 51.043 349.582 50.5586C349.832 50.0742 350.195 49.6484 350.672 49.2812C351.148 48.9062 351.715 48.6133 352.371 48.4023C353.035 48.1914 353.777 48.0859 354.598 48.0859C355.582 48.0859 356.457 48.25 357.223 48.5781C357.988 48.9062 358.59 49.3984 359.027 50.0547C359.473 50.7109 359.695 51.5312 359.695 52.5156V57.9414C359.695 58.6367 359.738 59.207 359.824 59.6523C359.91 60.0898 360.035 60.4727 360.199 60.8008V61H356.789C356.625 60.6562 356.5 60.2266 356.414 59.7109C356.336 59.1875 356.297 58.6641 356.297 58.1406ZM356.742 53.2773L356.766 55.1875H354.879C354.434 55.1875 354.047 55.2383 353.719 55.3398C353.391 55.4414 353.121 55.5859 352.91 55.7734C352.699 55.9531 352.543 56.1641 352.441 56.4062C352.348 56.6484 352.301 56.9141 352.301 57.2031C352.301 57.4922 352.367 57.7539 352.5 57.9883C352.633 58.2148 352.824 58.3945 353.074 58.5273C353.324 58.6523 353.617 58.7148 353.953 58.7148C354.461 58.7148 354.902 58.6133 355.277 58.4102C355.652 58.207 355.941 57.957 356.145 57.6602C356.355 57.3633 356.465 57.082 356.473 56.8164L357.363 58.2461C357.238 58.5664 357.066 58.8984 356.848 59.2422C356.637 59.5859 356.367 59.9102 356.039 60.2148C355.711 60.5117 355.316 60.7578 354.855 60.9531C354.395 61.1406 353.848 61.2344 353.215 61.2344C352.41 61.2344 351.68 61.0742 351.023 60.7539C350.375 60.4258 349.859 59.9766 349.477 59.4062C349.102 58.8281 348.914 58.1719 348.914 57.4375C348.914 56.7734 349.039 56.1836 349.289 55.668C349.539 55.1523 349.906 54.7188 350.391 54.3672C350.883 54.0078 351.496 53.7383 352.23 53.5586C352.965 53.3711 353.816 53.2773 354.785 53.2773H356.742ZM365.672 51.0859V61H362.297V48.3203H365.473L365.672 51.0859ZM369.492 48.2383L369.434 51.3672C369.27 51.3438 369.07 51.3242 368.836 51.3086C368.609 51.2852 368.402 51.2734 368.215 51.2734C367.738 51.2734 367.324 51.3359 366.973 51.4609C366.629 51.5781 366.34 51.7539 366.105 51.9883C365.879 52.2227 365.707 52.5078 365.59 52.8438C365.48 53.1797 365.418 53.5625 365.402 53.9922L364.723 53.7812C364.723 52.9609 364.805 52.207 364.969 51.5195C365.133 50.8242 365.371 50.2188 365.684 49.7031C366.004 49.1875 366.395 48.7891 366.855 48.5078C367.316 48.2266 367.844 48.0859 368.438 48.0859C368.625 48.0859 368.816 48.1016 369.012 48.1328C369.207 48.1562 369.367 48.1914 369.492 48.2383ZM377.531 58.1406V52.4922C377.531 52.0859 377.465 51.7383 377.332 51.4492C377.199 51.1523 376.992 50.9219 376.711 50.7578C376.438 50.5938 376.082 50.5117 375.645 50.5117C375.27 50.5117 374.945 50.5781 374.672 50.7109C374.398 50.8359 374.188 51.0195 374.039 51.2617C373.891 51.4961 373.816 51.7734 373.816 52.0938H370.441C370.441 51.5547 370.566 51.043 370.816 50.5586C371.066 50.0742 371.43 49.6484 371.906 49.2812C372.383 48.9062 372.949 48.6133 373.605 48.4023C374.27 48.1914 375.012 48.0859 375.832 48.0859C376.816 48.0859 377.691 48.25 378.457 48.5781C379.223 48.9062 379.824 49.3984 380.262 50.0547C380.707 50.7109 380.93 51.5312 380.93 52.5156V57.9414C380.93 58.6367 380.973 59.207 381.059 59.6523C381.145 60.0898 381.27 60.4727 381.434 60.8008V61H378.023C377.859 60.6562 377.734 60.2266 377.648 59.7109C377.57 59.1875 377.531 58.6641 377.531 58.1406ZM377.977 53.2773L378 55.1875H376.113C375.668 55.1875 375.281 55.2383 374.953 55.3398C374.625 55.4414 374.355 55.5859 374.145 55.7734C373.934 55.9531 373.777 56.1641 373.676 56.4062C373.582 56.6484 373.535 56.9141 373.535 57.2031C373.535 57.4922 373.602 57.7539 373.734 57.9883C373.867 58.2148 374.059 58.3945 374.309 58.5273C374.559 58.6523 374.852 58.7148 375.188 58.7148C375.695 58.7148 376.137 58.6133 376.512 58.4102C376.887 58.207 377.176 57.957 377.379 57.6602C377.59 57.3633 377.699 57.082 377.707 56.8164L378.598 58.2461C378.473 58.5664 378.301 58.8984 378.082 59.2422C377.871 59.5859 377.602 59.9102 377.273 60.2148C376.945 60.5117 376.551 60.7578 376.09 60.9531C375.629 61.1406 375.082 61.2344 374.449 61.2344C373.645 61.2344 372.914 61.0742 372.258 60.7539C371.609 60.4258 371.094 59.9766 370.711 59.4062C370.336 58.8281 370.148 58.1719 370.148 57.4375C370.148 56.7734 370.273 56.1836 370.523 55.668C370.773 55.1523 371.141 54.7188 371.625 54.3672C372.117 54.0078 372.73 53.7383 373.465 53.5586C374.199 53.3711 375.051 53.2773 376.02 53.2773H377.977ZM387.656 58.5391L390.469 48.3203H393.996L389.719 61H387.586L387.656 58.5391ZM385.723 48.3203L388.547 58.5508L388.605 61H386.461L382.184 48.3203H385.723ZM401.18 61.2344C400.195 61.2344 399.312 61.0781 398.531 60.7656C397.75 60.4453 397.086 60.0039 396.539 59.4414C396 58.8789 395.586 58.2266 395.297 57.4844C395.008 56.7344 394.863 55.9375 394.863 55.0938V54.625C394.863 53.6641 395 52.7852 395.273 51.9883C395.547 51.1914 395.938 50.5 396.445 49.9141C396.961 49.3281 397.586 48.8789 398.32 48.5664C399.055 48.2461 399.883 48.0859 400.805 48.0859C401.703 48.0859 402.5 48.2344 403.195 48.5312C403.891 48.8281 404.473 49.25 404.941 49.7969C405.418 50.3438 405.777 51 406.02 51.7656C406.262 52.5234 406.383 53.3672 406.383 54.2969V55.7031H396.305V53.4531H403.066V53.1953C403.066 52.7266 402.98 52.3086 402.809 51.9414C402.645 51.5664 402.395 51.2695 402.059 51.0508C401.723 50.832 401.293 50.7227 400.77 50.7227C400.324 50.7227 399.941 50.8203 399.621 51.0156C399.301 51.2109 399.039 51.4844 398.836 51.8359C398.641 52.1875 398.492 52.6016 398.391 53.0781C398.297 53.5469 398.25 54.0625 398.25 54.625V55.0938C398.25 55.6016 398.32 56.0703 398.461 56.5C398.609 56.9297 398.816 57.3008 399.082 57.6133C399.355 57.9258 399.684 58.168 400.066 58.3398C400.457 58.5117 400.898 58.5977 401.391 58.5977C402 58.5977 402.566 58.4805 403.09 58.2461C403.621 58.0039 404.078 57.6406 404.461 57.1562L406.102 58.9375C405.836 59.3203 405.473 59.6875 405.012 60.0391C404.559 60.3906 404.012 60.6797 403.371 60.9062C402.73 61.125 402 61.2344 401.18 61.2344ZM411.867 43V61H408.48V43H411.867ZM420.457 54.0625V54.3203C420.457 55.9141 420.277 57.3828 419.918 58.7266C419.559 60.0625 419.082 61.2461 418.488 62.2773C417.902 63.3164 417.258 64.1797 416.555 64.8672C415.859 65.5547 415.164 66.0469 414.469 66.3438L413.812 64.6094C414.258 64.2812 414.691 63.8281 415.113 63.25C415.543 62.6719 415.934 61.9609 416.285 61.1172C416.637 60.2812 416.914 59.3008 417.117 58.1758C417.328 57.0508 417.434 55.7734 417.434 54.3438V54.0391C417.434 52.6094 417.328 51.332 417.117 50.207C416.906 49.082 416.621 48.1016 416.262 47.2656C415.91 46.4219 415.52 45.7148 415.09 45.1445C414.668 44.5664 414.242 44.1133 413.812 43.7852L414.469 42.0391C415.164 42.3359 415.859 42.832 416.555 43.5273C417.258 44.2148 417.902 45.0742 418.488 46.1055C419.082 47.1367 419.559 48.3242 419.918 49.668C420.277 51.0039 420.457 52.4688 420.457 54.0625Z" fill="#888888"/>
<path d="M109.219 107.422H100.734V101.07H109.219C110.375 101.07 111.312 100.875 112.031 100.484C112.75 100.094 113.273 99.5547 113.602 98.8672C113.945 98.1641 114.117 97.375 114.117 96.5C114.117 95.5625 113.945 94.6953 113.602 93.8984C113.273 93.1016 112.75 92.4609 112.031 91.9766C111.312 91.4766 110.375 91.2266 109.219 91.2266H103.828V119H95.6016V84.875H109.219C111.953 84.875 114.305 85.375 116.273 86.375C118.258 87.375 119.781 88.75 120.844 90.5C121.906 92.2344 122.438 94.2188 122.438 96.4531C122.438 98.6562 121.906 100.578 120.844 102.219C119.781 103.859 118.258 105.141 116.273 106.062C114.305 106.969 111.953 107.422 109.219 107.422ZM134.461 99.9219V119H126.562V93.6406H133.945L134.461 99.9219ZM141.961 93.4531L141.82 100.789C141.508 100.758 141.086 100.719 140.555 100.672C140.023 100.625 139.578 100.602 139.219 100.602C138.297 100.602 137.5 100.711 136.828 100.93C136.172 101.133 135.625 101.445 135.188 101.867C134.766 102.273 134.453 102.789 134.25 103.414C134.062 104.039 133.977 104.766 133.992 105.594L132.562 104.656C132.562 102.953 132.727 101.406 133.055 100.016C133.398 98.6094 133.883 97.3984 134.508 96.3828C135.133 95.3516 135.891 94.5625 136.781 94.0156C137.672 93.4531 138.672 93.1719 139.781 93.1719C140.172 93.1719 140.555 93.1953 140.93 93.2422C141.32 93.2891 141.664 93.3594 141.961 93.4531ZM142.852 106.578V106.086C142.852 104.227 143.117 102.516 143.648 100.953C144.18 99.375 144.961 98.0078 145.992 96.8516C147.023 95.6953 148.297 94.7969 149.812 94.1562C151.328 93.5 153.078 93.1719 155.062 93.1719C157.062 93.1719 158.82 93.5 160.336 94.1562C161.867 94.7969 163.148 95.6953 164.18 96.8516C165.211 98.0078 165.992 99.375 166.523 100.953C167.055 102.516 167.32 104.227 167.32 106.086V106.578C167.32 108.422 167.055 110.133 166.523 111.711C165.992 113.273 165.211 114.641 164.18 115.812C163.148 116.969 161.875 117.867 160.359 118.508C158.844 119.148 157.094 119.469 155.109 119.469C153.125 119.469 151.367 119.148 149.836 118.508C148.305 117.867 147.023 116.969 145.992 115.812C144.961 114.641 144.18 113.273 143.648 111.711C143.117 110.133 142.852 108.422 142.852 106.578ZM150.75 106.086V106.578C150.75 107.531 150.82 108.422 150.961 109.25C151.102 110.078 151.336 110.805 151.664 111.43C151.992 112.039 152.438 112.516 153 112.859C153.562 113.203 154.266 113.375 155.109 113.375C155.938 113.375 156.625 113.203 157.172 112.859C157.734 112.516 158.18 112.039 158.508 111.43C158.836 110.805 159.07 110.078 159.211 109.25C159.352 108.422 159.422 107.531 159.422 106.578V106.086C159.422 105.164 159.352 104.297 159.211 103.484C159.07 102.656 158.836 101.93 158.508 101.305C158.18 100.664 157.734 100.164 157.172 99.8047C156.609 99.4453 155.906 99.2656 155.062 99.2656C154.234 99.2656 153.539 99.4453 152.977 99.8047C152.43 100.164 151.992 100.664 151.664 101.305C151.336 101.93 151.102 102.656 150.961 103.484C150.82 104.297 150.75 105.164 150.75 106.086ZM171.422 93.6406H179.344V119.82C179.344 121.852 178.953 123.562 178.172 124.953C177.391 126.359 176.273 127.422 174.82 128.141C173.367 128.875 171.633 129.242 169.617 129.242C168.945 129.242 168.328 129.211 167.766 129.148C167.188 129.102 166.555 129 165.867 128.844V122.867C166.273 122.93 166.648 122.977 166.992 123.008C167.336 123.055 167.711 123.078 168.117 123.078C168.836 123.078 169.438 122.961 169.922 122.727C170.406 122.492 170.773 122.133 171.023 121.648C171.289 121.164 171.422 120.555 171.422 119.82V93.6406ZM170.836 87.1016C170.836 85.9766 171.242 85.0547 172.055 84.3359C172.867 83.6172 173.922 83.2578 175.219 83.2578C176.516 83.2578 177.57 83.6172 178.383 84.3359C179.195 85.0547 179.602 85.9766 179.602 87.1016C179.602 88.2266 179.195 89.1484 178.383 89.8672C177.57 90.5859 176.516 90.9453 175.219 90.9453C173.922 90.9453 172.867 90.5859 172.055 89.8672C171.242 89.1484 170.836 88.2266 170.836 87.1016ZM196.102 119.469C194.039 119.469 192.195 119.148 190.57 118.508C188.945 117.852 187.57 116.953 186.445 115.812C185.336 114.672 184.484 113.359 183.891 111.875C183.312 110.391 183.023 108.82 183.023 107.164V106.273C183.023 104.414 183.281 102.695 183.797 101.117C184.312 99.5234 185.078 98.1328 186.094 96.9453C187.109 95.7578 188.383 94.8359 189.914 94.1797C191.445 93.5078 193.227 93.1719 195.258 93.1719C197.055 93.1719 198.664 93.4609 200.086 94.0391C201.508 94.6172 202.711 95.4453 203.695 96.5234C204.695 97.6016 205.453 98.9062 205.969 100.438C206.5 101.969 206.766 103.688 206.766 105.594V108.805H186.047V103.859H199.055V103.25C199.07 102.406 198.922 101.688 198.609 101.094C198.312 100.5 197.875 100.047 197.297 99.7344C196.719 99.4219 196.016 99.2656 195.188 99.2656C194.328 99.2656 193.617 99.4531 193.055 99.8281C192.508 100.203 192.078 100.719 191.766 101.375C191.469 102.016 191.258 102.758 191.133 103.602C191.008 104.445 190.945 105.336 190.945 106.273V107.164C190.945 108.102 191.07 108.953 191.32 109.719C191.586 110.484 191.961 111.141 192.445 111.688C192.945 112.219 193.539 112.633 194.227 112.93C194.93 113.227 195.727 113.375 196.617 113.375C197.695 113.375 198.758 113.172 199.805 112.766C200.852 112.359 201.75 111.688 202.5 110.75L206.086 115.016C205.57 115.75 204.836 116.461 203.883 117.148C202.945 117.836 201.82 118.398 200.508 118.836C199.195 119.258 197.727 119.469 196.102 119.469ZM220.688 113.375C221.422 113.375 222.047 113.242 222.562 112.977C223.094 112.695 223.492 112.305 223.758 111.805C224.039 111.289 224.172 110.672 224.156 109.953H231.586C231.602 111.859 231.133 113.531 230.18 114.969C229.242 116.391 227.961 117.5 226.336 118.297C224.727 119.078 222.906 119.469 220.875 119.469C218.891 119.469 217.156 119.148 215.672 118.508C214.188 117.852 212.945 116.945 211.945 115.789C210.961 114.617 210.219 113.25 209.719 111.688C209.234 110.125 208.992 108.43 208.992 106.602V106.062C208.992 104.234 209.234 102.539 209.719 100.977C210.219 99.3984 210.961 98.0312 211.945 96.875C212.945 95.7031 214.18 94.7969 215.648 94.1562C217.133 93.5 218.859 93.1719 220.828 93.1719C222.938 93.1719 224.797 93.5703 226.406 94.3672C228.031 95.1641 229.305 96.3203 230.227 97.8359C231.148 99.3516 231.602 101.188 231.586 103.344H224.156C224.172 102.578 224.055 101.891 223.805 101.281C223.555 100.672 223.164 100.188 222.633 99.8281C222.117 99.4531 221.453 99.2656 220.641 99.2656C219.828 99.2656 219.172 99.4453 218.672 99.8047C218.172 100.164 217.789 100.664 217.523 101.305C217.273 101.93 217.102 102.648 217.008 103.461C216.93 104.273 216.891 105.141 216.891 106.062V106.602C216.891 107.539 216.93 108.422 217.008 109.25C217.102 110.062 217.281 110.781 217.547 111.406C217.812 112.016 218.195 112.5 218.695 112.859C219.195 113.203 219.859 113.375 220.688 113.375ZM248.32 93.6406V99.125H233.039V93.6406H248.32ZM236.25 87.3359H244.148V110.727C244.148 111.398 244.227 111.922 244.383 112.297C244.539 112.656 244.805 112.914 245.18 113.07C245.57 113.211 246.086 113.281 246.727 113.281C247.18 113.281 247.555 113.273 247.852 113.258C248.148 113.227 248.43 113.188 248.695 113.141V118.789C248.023 119.008 247.32 119.172 246.586 119.281C245.852 119.406 245.07 119.469 244.242 119.469C242.555 119.469 241.109 119.203 239.906 118.672C238.719 118.141 237.812 117.305 237.188 116.164C236.562 115.023 236.25 113.539 236.25 111.711V87.3359ZM274.875 119H267.305L267.352 112.672H274.875C276.438 112.672 277.758 112.297 278.836 111.547C279.93 110.797 280.758 109.68 281.32 108.195C281.898 106.695 282.188 104.852 282.188 102.664V101.188C282.188 99.5469 282.023 98.1094 281.695 96.875C281.383 95.625 280.914 94.5859 280.289 93.7578C279.664 92.9141 278.883 92.2812 277.945 91.8594C277.023 91.4375 275.961 91.2266 274.758 91.2266H267.164V84.875H274.758C277.07 84.875 279.188 85.2734 281.109 86.0703C283.047 86.8516 284.719 87.9766 286.125 89.4453C287.547 90.8984 288.641 92.625 289.406 94.625C290.188 96.6094 290.578 98.8125 290.578 101.234V102.664C290.578 105.07 290.188 107.273 289.406 109.273C288.641 111.273 287.555 113 286.148 114.453C284.742 115.906 283.078 117.031 281.156 117.828C279.25 118.609 277.156 119 274.875 119ZM272.016 84.875V119H263.789V84.875H272.016ZM306.773 119.469C304.711 119.469 302.867 119.148 301.242 118.508C299.617 117.852 298.242 116.953 297.117 115.812C296.008 114.672 295.156 113.359 294.562 111.875C293.984 110.391 293.695 108.82 293.695 107.164V106.273C293.695 104.414 293.953 102.695 294.469 101.117C294.984 99.5234 295.75 98.1328 296.766 96.9453C297.781 95.7578 299.055 94.8359 300.586 94.1797C302.117 93.5078 303.898 93.1719 305.93 93.1719C307.727 93.1719 309.336 93.4609 310.758 94.0391C312.18 94.6172 313.383 95.4453 314.367 96.5234C315.367 97.6016 316.125 98.9062 316.641 100.438C317.172 101.969 317.438 103.688 317.438 105.594V108.805H296.719V103.859H309.727V103.25C309.742 102.406 309.594 101.688 309.281 101.094C308.984 100.5 308.547 100.047 307.969 99.7344C307.391 99.4219 306.688 99.2656 305.859 99.2656C305 99.2656 304.289 99.4531 303.727 99.8281C303.18 100.203 302.75 100.719 302.438 101.375C302.141 102.016 301.93 102.758 301.805 103.602C301.68 104.445 301.617 105.336 301.617 106.273V107.164C301.617 108.102 301.742 108.953 301.992 109.719C302.258 110.484 302.633 111.141 303.117 111.688C303.617 112.219 304.211 112.633 304.898 112.93C305.602 113.227 306.398 113.375 307.289 113.375C308.367 113.375 309.43 113.172 310.477 112.766C311.523 112.359 312.422 111.688 313.172 110.75L316.758 115.016C316.242 115.75 315.508 116.461 314.555 117.148C313.617 117.836 312.492 118.398 311.18 118.836C309.867 119.258 308.398 119.469 306.773 119.469ZM333.938 111.875C333.938 111.438 333.789 111.062 333.492 110.75C333.211 110.422 332.711 110.125 331.992 109.859C331.273 109.578 330.266 109.297 328.969 109.016C327.734 108.75 326.57 108.398 325.477 107.961C324.398 107.523 323.453 106.992 322.641 106.367C321.828 105.742 321.188 105 320.719 104.141C320.266 103.281 320.039 102.297 320.039 101.188C320.039 100.109 320.266 99.0938 320.719 98.1406C321.188 97.1719 321.867 96.3203 322.758 95.5859C323.664 94.8359 324.766 94.25 326.062 93.8281C327.359 93.3906 328.836 93.1719 330.492 93.1719C332.773 93.1719 334.742 93.5234 336.398 94.2266C338.055 94.9141 339.328 95.8828 340.219 97.1328C341.125 98.3672 341.578 99.7969 341.578 101.422H333.68C333.68 100.781 333.57 100.234 333.352 99.7812C333.148 99.3281 332.812 98.9844 332.344 98.75C331.875 98.5 331.25 98.375 330.469 98.375C329.922 98.375 329.422 98.4766 328.969 98.6797C328.531 98.8828 328.18 99.1641 327.914 99.5234C327.648 99.8828 327.516 100.305 327.516 100.789C327.516 101.133 327.594 101.445 327.75 101.727C327.922 101.992 328.18 102.242 328.523 102.477C328.867 102.695 329.305 102.898 329.836 103.086C330.367 103.258 331.008 103.414 331.758 103.555C333.461 103.867 335.055 104.312 336.539 104.891C338.023 105.469 339.227 106.289 340.148 107.352C341.086 108.414 341.555 109.844 341.555 111.641C341.555 112.766 341.297 113.805 340.781 114.758C340.266 115.695 339.523 116.523 338.555 117.242C337.586 117.945 336.422 118.492 335.062 118.883C333.703 119.273 332.172 119.469 330.469 119.469C328.047 119.469 326 119.039 324.328 118.18C322.656 117.305 321.391 116.211 320.531 114.898C319.688 113.57 319.266 112.227 319.266 110.867H326.625C326.656 111.648 326.844 112.289 327.188 112.789C327.547 113.289 328.023 113.656 328.617 113.891C329.211 114.125 329.898 114.242 330.68 114.242C331.398 114.242 331.992 114.141 332.461 113.938C332.945 113.734 333.312 113.461 333.562 113.117C333.812 112.758 333.938 112.344 333.938 111.875ZM355.969 113.375C356.703 113.375 357.328 113.242 357.844 112.977C358.375 112.695 358.773 112.305 359.039 111.805C359.32 111.289 359.453 110.672 359.438 109.953H366.867C366.883 111.859 366.414 113.531 365.461 114.969C364.523 116.391 363.242 117.5 361.617 118.297C360.008 119.078 358.188 119.469 356.156 119.469C354.172 119.469 352.438 119.148 350.953 118.508C349.469 117.852 348.227 116.945 347.227 115.789C346.242 114.617 345.5 113.25 345 111.688C344.516 110.125 344.273 108.43 344.273 106.602V106.062C344.273 104.234 344.516 102.539 345 100.977C345.5 99.3984 346.242 98.0312 347.227 96.875C348.227 95.7031 349.461 94.7969 350.93 94.1562C352.414 93.5 354.141 93.1719 356.109 93.1719C358.219 93.1719 360.078 93.5703 361.688 94.3672C363.312 95.1641 364.586 96.3203 365.508 97.8359C366.43 99.3516 366.883 101.188 366.867 103.344H359.438C359.453 102.578 359.336 101.891 359.086 101.281C358.836 100.672 358.445 100.188 357.914 99.8281C357.398 99.4531 356.734 99.2656 355.922 99.2656C355.109 99.2656 354.453 99.4453 353.953 99.8047C353.453 100.164 353.07 100.664 352.805 101.305C352.555 101.93 352.383 102.648 352.289 103.461C352.211 104.273 352.172 105.141 352.172 106.062V106.602C352.172 107.539 352.211 108.422 352.289 109.25C352.383 110.062 352.562 110.781 352.828 111.406C353.094 112.016 353.477 112.5 353.977 112.859C354.477 113.203 355.141 113.375 355.969 113.375ZM378.211 99.9219V119H370.312V93.6406H377.695L378.211 99.9219ZM385.711 93.4531L385.57 100.789C385.258 100.758 384.836 100.719 384.305 100.672C383.773 100.625 383.328 100.602 382.969 100.602C382.047 100.602 381.25 100.711 380.578 100.93C379.922 101.133 379.375 101.445 378.938 101.867C378.516 102.273 378.203 102.789 378 103.414C377.812 104.039 377.727 104.766 377.742 105.594L376.312 104.656C376.312 102.953 376.477 101.406 376.805 100.016C377.148 98.6094 377.633 97.3984 378.258 96.3828C378.883 95.3516 379.641 94.5625 380.531 94.0156C381.422 93.4531 382.422 93.1719 383.531 93.1719C383.922 93.1719 384.305 93.1953 384.68 93.2422C385.07 93.2891 385.414 93.3594 385.711 93.4531ZM396.773 93.6406V119H388.852V93.6406H396.773ZM388.383 87.1016C388.383 85.9766 388.789 85.0547 389.602 84.3359C390.414 83.6172 391.469 83.2578 392.766 83.2578C394.062 83.2578 395.117 83.6172 395.93 84.3359C396.742 85.0547 397.148 85.9766 397.148 87.1016C397.148 88.2266 396.742 89.1484 395.93 89.8672C395.117 90.5859 394.062 90.9453 392.766 90.9453C391.469 90.9453 390.414 90.5859 389.602 89.8672C388.789 89.1484 388.383 88.2266 388.383 87.1016ZM409.617 98.5156V128.75H401.719V93.6406H409.078L409.617 98.5156ZM425.18 106.016V106.508C425.18 108.352 424.969 110.062 424.547 111.641C424.125 113.219 423.5 114.594 422.672 115.766C421.844 116.938 420.812 117.852 419.578 118.508C418.359 119.148 416.945 119.469 415.336 119.469C413.82 119.469 412.516 119.133 411.422 118.461C410.328 117.789 409.414 116.859 408.68 115.672C407.945 114.484 407.352 113.125 406.898 111.594C406.445 110.062 406.086 108.445 405.82 106.742V106.109C406.086 104.281 406.445 102.586 406.898 101.023C407.352 99.4453 407.945 98.0703 408.68 96.8984C409.414 95.7266 410.32 94.8125 411.398 94.1562C412.492 93.5 413.797 93.1719 415.312 93.1719C416.922 93.1719 418.336 93.4766 419.555 94.0859C420.789 94.6953 421.82 95.5703 422.648 96.7109C423.492 97.8359 424.125 99.1875 424.547 100.766C424.969 102.344 425.18 104.094 425.18 106.016ZM417.281 106.508V106.016C417.281 105.031 417.211 104.133 417.07 103.32C416.93 102.492 416.703 101.773 416.391 101.164C416.094 100.555 415.695 100.086 415.195 99.7578C414.695 99.4297 414.078 99.2656 413.344 99.2656C412.5 99.2656 411.789 99.3984 411.211 99.6641C410.648 99.9141 410.195 100.305 409.852 100.836C409.523 101.352 409.289 102 409.148 102.781C409.023 103.547 408.969 104.445 408.984 105.477V107.398C408.953 108.586 409.07 109.633 409.336 110.539C409.602 111.43 410.062 112.125 410.719 112.625C411.375 113.125 412.266 113.375 413.391 113.375C414.141 113.375 414.766 113.203 415.266 112.859C415.766 112.5 416.164 112.008 416.461 111.383C416.758 110.742 416.969 110.008 417.094 109.18C417.219 108.352 417.281 107.461 417.281 106.508ZM442.055 93.6406V99.125H426.773V93.6406H442.055ZM429.984 87.3359H437.883V110.727C437.883 111.398 437.961 111.922 438.117 112.297C438.273 112.656 438.539 112.914 438.914 113.07C439.305 113.211 439.82 113.281 440.461 113.281C440.914 113.281 441.289 113.273 441.586 113.258C441.883 113.227 442.164 113.188 442.43 113.141V118.789C441.758 119.008 441.055 119.172 440.32 119.281C439.586 119.406 438.805 119.469 437.977 119.469C436.289 119.469 434.844 119.203 433.641 118.672C432.453 118.141 431.547 117.305 430.922 116.164C430.297 115.023 429.984 113.539 429.984 111.711V87.3359ZM453.539 93.6406V119H445.617V93.6406H453.539ZM445.148 87.1016C445.148 85.9766 445.555 85.0547 446.367 84.3359C447.18 83.6172 448.234 83.2578 449.531 83.2578C450.828 83.2578 451.883 83.6172 452.695 84.3359C453.508 85.0547 453.914 85.9766 453.914 87.1016C453.914 88.2266 453.508 89.1484 452.695 89.8672C451.883 90.5859 450.828 90.9453 449.531 90.9453C448.234 90.9453 447.18 90.5859 446.367 89.8672C445.555 89.1484 445.148 88.2266 445.148 87.1016ZM457.43 106.578V106.086C457.43 104.227 457.695 102.516 458.227 100.953C458.758 99.375 459.539 98.0078 460.57 96.8516C461.602 95.6953 462.875 94.7969 464.391 94.1562C465.906 93.5 467.656 93.1719 469.641 93.1719C471.641 93.1719 473.398 93.5 474.914 94.1562C476.445 94.7969 477.727 95.6953 478.758 96.8516C479.789 98.0078 480.57 99.375 481.102 100.953C481.633 102.516 481.898 104.227 481.898 106.086V106.578C481.898 108.422 481.633 110.133 481.102 111.711C480.57 113.273 479.789 114.641 478.758 115.812C477.727 116.969 476.453 117.867 474.938 118.508C473.422 119.148 471.672 119.469 469.688 119.469C467.703 119.469 465.945 119.148 464.414 118.508C462.883 117.867 461.602 116.969 460.57 115.812C459.539 114.641 458.758 113.273 458.227 111.711C457.695 110.133 457.43 108.422 457.43 106.578ZM465.328 106.086V106.578C465.328 107.531 465.398 108.422 465.539 109.25C465.68 110.078 465.914 110.805 466.242 111.43C466.57 112.039 467.016 112.516 467.578 112.859C468.141 113.203 468.844 113.375 469.688 113.375C470.516 113.375 471.203 113.203 471.75 112.859C472.312 112.516 472.758 112.039 473.086 111.43C473.414 110.805 473.648 110.078 473.789 109.25C473.93 108.422 474 107.531 474 106.578V106.086C474 105.164 473.93 104.297 473.789 103.484C473.648 102.656 473.414 101.93 473.086 101.305C472.758 100.664 472.312 100.164 471.75 99.8047C471.188 99.4453 470.484 99.2656 469.641 99.2656C468.812 99.2656 468.117 99.4453 467.555 99.8047C467.008 100.164 466.57 100.664 466.242 101.305C465.914 101.93 465.68 102.656 465.539 103.484C465.398 104.297 465.328 105.164 465.328 106.086ZM493.172 99.0547V119H485.273V93.6406H492.68L493.172 99.0547ZM492.234 105.453L490.383 105.5C490.383 103.562 490.617 101.836 491.086 100.32C491.555 98.7891 492.219 97.4922 493.078 96.4297C493.938 95.3672 494.961 94.5625 496.148 94.0156C497.352 93.4531 498.688 93.1719 500.156 93.1719C501.328 93.1719 502.398 93.3438 503.367 93.6875C504.352 94.0312 505.195 94.5859 505.898 95.3516C506.617 96.1172 507.164 97.1328 507.539 98.3984C507.93 99.6484 508.125 101.195 508.125 103.039V119H500.18V103.016C500.18 102 500.039 101.227 499.758 100.695C499.477 100.148 499.07 99.7734 498.539 99.5703C498.008 99.3672 497.359 99.2656 496.594 99.2656C495.781 99.2656 495.094 99.4219 494.531 99.7344C493.969 100.047 493.516 100.484 493.172 101.047C492.844 101.594 492.602 102.242 492.445 102.992C492.305 103.742 492.234 104.562 492.234 105.453Z" fill="black"/>
<path d="M1134 0H1348C1356.28 0 1363 6.71573 1363 15V148C1363 156.284 1356.28 163 1348 163H1134V0Z" fill="#F03C2E"/>
<path d="M1234.26 103.786H1262.74V109.357H1234.26V103.786ZM1239.96 114.929H1257.04V120.5H1239.96V114.929ZM1248.5 42.5C1240.95 42.5 1233.71 45.4349 1228.37 50.6592C1223.03 55.8834 1220.03 62.969 1220.03 70.3571C1219.84 74.4057 1220.63 78.4412 1222.34 82.1315C1224.05 85.8219 1226.64 89.0616 1229.88 91.5843C1232.73 94.175 1234.26 95.6514 1234.26 98.2143H1239.96C1239.96 93.0886 1236.8 90.2193 1233.72 87.4614C1231.06 85.4676 1228.94 82.8658 1227.55 79.8838C1226.15 76.9019 1225.53 73.6308 1225.72 70.3571C1225.72 64.4466 1228.12 58.7781 1232.39 54.5988C1236.67 50.4194 1242.46 48.0714 1248.5 48.0714C1254.54 48.0714 1260.33 50.4194 1264.61 54.5988C1268.88 58.7781 1271.28 64.4466 1271.28 70.3571C1271.47 73.6333 1270.84 76.9059 1269.44 79.888C1268.04 82.8701 1265.92 85.4706 1263.25 87.4614C1260.2 90.2471 1257.04 93.0329 1257.04 98.2143H1262.74C1262.74 95.6514 1264.25 94.175 1267.12 91.5564C1270.36 89.0381 1272.94 85.8031 1274.66 82.1176C1276.37 78.4321 1277.16 74.4014 1276.97 70.3571C1276.97 66.6989 1276.24 63.0765 1274.81 59.6967C1273.37 56.3169 1271.28 53.2459 1268.63 50.6592C1265.99 48.0724 1262.85 46.0205 1259.4 44.6205C1255.94 43.2205 1252.24 42.5 1248.5 42.5Z" fill="white"/>
</svg>
